<?xml version="1.0" encoding="UTF-8" standalone="no"?>
<!-- Created with Inkscape (http://www.inkscape.org/) -->

<svg
   xmlns:dc="http://purl.org/dc/elements/1.1/"
   xmlns:cc="http://creativecommons.org/ns#"
   xmlns:rdf="http://www.w3.org/1999/02/22-rdf-syntax-ns#"
   xmlns:svg="http://www.w3.org/2000/svg"
   xmlns="http://www.w3.org/2000/svg"
   version="1.1"
   width="400"
   height="400"
   viewBox="50 50 350 350"
   id="twitter-bird"
   xml:space="preserve"><metadata
   id="metadata4940"><rdf:RDF><cc:Work
       rdf:about=""><dc:format>image/svg+xml</dc:format><dc:type
         rdf:resource="http://purl.org/dc/dcmitype/StillImage" /><dc:title></dc:title></cc:Work></rdf:RDF></metadata><defs
   id="defs4938" />
<path
   d="m 375.98398,477.69252 -39.18377,-1.08483 -17.12611,-30.43012 c 0.22307,-1.09836 1.03458,-2.21331 2.46094,-3.63672 0.85031,-0.84868 1.0389,-1.62266 0.875,-3.44532 -0.39295,-4.36892 1.12651,-6.0644 4.18359,-4.64843 2.20895,1.02303 3.34004,0.46733 4.86719,-2.37891 1.21871,-2.27146 1.86901,-4.36925 2.76172,-8.96875 0.16391,-0.84491 1.40506,-2.30401 3.44531,-4.04687 l 3.17188,-2.73438 1.96875,0.90234 c 2.95351,1.32439 3.76377,0.88675 5.49609,-2.92578 0.83347,-1.8343 2.37707,-4.51158 3.41797,-5.96093 1.16799,-1.62636 1.97557,-3.42756 2.10547,-4.67579 0.28817,-2.76958 1.01072,-3.37114 3.85547,-3.28125 2.82934,0.0895 6.37639,-0.68483 7.46484,-1.64062 0.44407,-0.38999 1.05282,-1.65498 1.33985,-2.81641 0.88968,-3.60081 4.04586,-4.05274 5.60547,-0.79297 0.85359,1.78412 1.51224,1.98311 5.14062,1.5586 1.74801,-0.20451 4.08587,-0.2586 5.19531,-0.13672 2.48551,0.27297 6.32591,-0.57854 6.91797,-1.53125 0.24177,-0.38886 0.27329,-1.37031 0.082,-2.1875 -0.19555,-0.83525 -0.0275,-2.04624 0.38281,-2.76172 1.68768,-2.94271 5.5391,-1.47433 5.76954,2.21484 l 0.13671,1.96875 1.77735,-0.71093 c 0.71059,-0.28165 2.67351,-0.98603 4.78515,-1.72266 l 43.65205,37.1024 -18.53853,43.22768 z m -61.888,-31.51493 -3.03516,0 c -1.73843,-1.55466 -2.47818,-6.97995 -0.98437,-7.21875 0.14704,-0.023 1.02206,0.10575 1.9414,0.27343 2.04938,0.37384 3.85284,1.99337 3.7461,3.36328 -0.12486,1.60404 -0.80492,2.87597 -1.66797,3.58204 z m -22.23047,0 -4.34766,0 c 0.42586,-0.63691 0.92601,-1.16127 1.25781,-1.23047 0.16282,-0.0328 0.87872,0.0692 1.61329,0.24609 0.63917,0.15401 1.14432,0.51352 1.47656,0.98438 z m -9.95313,0 -4.75781,0 c -0.12993,-0.18175 -0.22974,-0.35988 -0.27344,-0.54688 -0.15185,-0.64899 1.5795,-3.82918 2.16016,-3.96484 0.13689,-0.0319 0.84474,0.31863 1.55859,0.79297 1.57711,1.04793 1.96504,2.59474 1.3125,3.71875 z m -24.36328,0 -2.67969,0 c 0.24036,-0.28509 0.51201,-0.5086 0.79297,-0.57422 0.47015,-0.10986 1.26571,0.12697 1.77735,0.49218 0.0403,0.0288 0.0701,0.0526 0.10937,0.082 z m -8.85937,0 -4.42969,0 c -0.0381,-0.54271 0.093,-1.1466 0.49219,-1.72266 0.93329,-1.347 2.03707,-1.50698 3.17187,-0.49219 0.69844,0.62457 0.96137,1.44336 0.76563,2.21485 z m -32.70313,0 -4.07422,0 c 0.1072,-0.24398 0.27472,-0.49548 0.49219,-0.73829 1.05741,-1.1803 1.09378,-1.20587 2.35156,-0.82031 0.88262,0.27058 1.26092,0.90368 1.23047,1.5586 z m -43.66796,0 -3.55468,0 c -0.10416,-0.4228 -0.11348,-0.94687 -0.0274,-1.58594 0.21196,-1.57535 1.96368,-2.28909 3.25391,-1.3125 0.92637,0.70121 0.96507,1.97099 0.32812,2.89844 z m 96.98827,-1.80469 c -1.22173,-0.0131 -2.53483,-0.98449 -2.8164,-2.1875 -0.27198,-1.16205 -0.0908,-1.36218 1.77734,-2.24219 0.84856,-0.3998 1.62964,-0.46968 2.07813,-0.19141 1.6123,1.00027 1.25359,4.15215 -0.51953,4.56641 -0.16755,0.0392 -0.34498,0.0547 -0.51954,0.0547 z m -107.26952,-0.54688 c -0.0257,0.006 -0.0673,0.003 -0.10937,0 -0.29492,-0.02 -0.94894,-0.23867 -1.58594,-0.54687 -1.13475,-0.54898 -1.26935,-0.79659 -0.875,-1.58594 0.62014,-1.24097 2.07689,-1.50364 2.67969,-0.49219 0.53975,0.90576 0.47781,2.48774 -0.10938,2.625 z m 140.24609,-0.082 c -1.77757,0.0248 -3.5173,-2.72536 -2.54297,-4.29297 0.53245,-0.85672 2.98494,-1.46733 4.29297,-1.0664 2.11424,0.6481 1.03767,4.73643 -1.39453,5.30468 -0.11783,0.0275 -0.23699,0.0547 -0.35547,0.0547 z m -107.76171,-0.46484 c -0.08,0.008 -0.16277,-6.2e-4 -0.2461,0 -1.25047,0.01 -2.8241,-0.8483 -3.03515,-1.75 -0.21747,-0.92902 1.10022,-2.78754 2.16015,-3.03516 0.32977,-0.077 1.07411,0.33719 1.66797,0.90235 0.86469,0.82283 1.02898,1.28368 0.82032,2.32421 -0.14343,0.71465 -0.64811,1.39342 -1.1211,1.50391 -0.0801,0.0186 -0.16082,0.0454 -0.24609,0.0547 z m 64.66796,-1.64063 c -0.11531,0 -0.23485,-0.0182 -0.35547,-0.0273 -1.22335,-0.0951 -2.39053,-2.00843 -1.96875,-3.22656 0.6148,-1.77549 1.76352,-2.51512 3.30859,-2.10547 3.57693,0.94823 2.59078,5.35937 -0.98437,5.35937 z m -108.03515,-1.12109 c -1.22457,0.004 -2.03759,-1.01016 -1.50391,-2.07813 0.56238,-1.12546 1.41805,-1.3562 2.37891,-0.6289 1.15359,0.8732 0.97253,2.32118 -0.32812,2.625 -0.18844,0.0438 -0.37191,0.082 -0.54688,0.082 z m 141.85937,-0.13672 c -0.0825,0.005 -0.16504,10e-4 -0.2461,0 -2.51234,-0.0331 -4.32174,-3.02936 -2.24219,-4.42969 1.58529,-1.0674 2.20421,-1.13823 3.33594,-0.35547 1.96007,1.35569 1.75922,4.21544 -0.32812,4.70313 -0.18061,0.0423 -0.34366,0.0708 -0.51953,0.082 z m -108.99218,-0.21875 c -0.0645,0.006 -0.13213,0 -0.19141,0 -0.8894,0 -1.18088,-0.67088 -1.25781,-2.40625 -0.0882,-1.98863 0.9468,-2.57214 2.57031,-1.44922 1.80798,1.25055 1.46893,3.28336 -0.6289,3.77344 -0.17684,0.0413 -0.34452,0.0688 -0.49219,0.082 z m 65.10546,-2.1875 c -0.0806,0.003 -0.16934,0.003 -0.2461,0 -1.35107,-0.059 -2.069,-1.11448 -1.47656,-2.73437 0.55923,-1.5289 2.20932,-2.25377 3.41797,-1.50391 0.38924,0.24149 0.84079,1.0469 1.01172,1.77734 0.23567,1.00676 0.0326,1.48915 -0.79297,1.91407 -0.70899,0.36483 -1.3502,0.52534 -1.91406,0.54687 z m 33.98828,-0.13672 c -1.21265,-0.0314 -2.8414,-1.33694 -3.11719,-2.51562 -0.17979,-0.76782 1.13848,-2.70453 1.96875,-2.89844 0.20436,-0.0476 0.90981,0.22651 1.55859,0.62891 2.20151,1.36593 1.90155,4.84538 -0.41015,4.78515 z m 32.15625,-1.14844 c -1.80609,0.0555 -2.92234,-2.66359 -1.72266,-4.59375 0.91562,-1.47319 1.18918,-1.54489 3.03516,-0.68359 0.82004,0.38253 1.58128,1.09876 1.69531,1.58594 0.23842,1.01867 -1.44655,3.3614 -2.625,3.63672 -0.12591,0.0294 -0.26241,0.0498 -0.38281,0.0547 z m -74.89453,-2.10546 c -0.044,0.0103 -0.0799,-0.002 -0.13672,0 -0.0568,0.002 -0.1253,0.003 -0.19141,0 -0.3966,-0.0224 -0.96992,-0.1494 -1.42187,-0.35547 -1.08441,-0.49446 -1.05323,-0.49825 -0.30078,-1.42188 0.41815,-0.51317 1.04222,-1.01146 1.39453,-1.09375 0.35241,-0.0823 0.82289,0.16093 1.0664,0.51953 0.59941,0.88272 0.37549,2.168 -0.41015,2.35157 z m 32.21093,-0.41016 c -1.73665,0.005 -3.4716,-1.55478 -2.87109,-3.30859 0.33415,-0.97601 2.931,-2.15674 3.5,-1.58594 0.18226,0.18283 0.66131,1.07791 1.06641,1.99609 0.59977,1.36004 0.60662,1.7949 -0.0273,2.32422 -0.48959,0.40882 -1.08914,0.57422 -1.66797,0.57422 z m -107.87108,-0.0547 c -0.0357,0.002 -0.0709,-1.5e-4 -0.10937,0 -0.5388,0.002 -1.32159,-0.33599 -1.85938,-0.84765 -1.08202,-1.0297 -1.08588,-1.09972 -0.21875,-2.21485 1.16606,-1.49977 2.01738,-1.66879 2.98047,-0.57422 1.03517,1.17654 0.60144,3.30282 -0.71094,3.60938 -0.033,0.008 -0.0461,0.0256 -0.082,0.0273 z m 140.8203,-0.90236 c -1.79715,-0.0121 -3.11783,-3.51444 -1.42187,-5.00391 0.62746,-0.551 1.10318,-0.50488 2.26953,0.21875 2.33671,1.44955 2.33656,3.19203 -0.0273,4.56641 -0.26864,0.15615 -0.5636,0.21875 -0.82032,0.21875 z m -75.52343,-1.03906 c -1.15497,0.005 -2.92124,-0.6725 -5.60547,-2.16016 -3.25337,-1.80305 -3.86622,-2.83832 -4.1836,-6.97266 -0.52283,-6.81515 0.46406,-8.04775 7.6836,-9.73437 l 4.73047,-1.09375 0.90234,-1.96875 c 1.00761,-2.24283 2.759,-3.00377 3.91016,-1.69531 0.58583,0.66584 0.50583,1.17899 -0.35547,2.78906 -1.24237,2.32245 -1.02096,3.65806 1.03906,6.48047 1.76817,2.42265 2.85951,3.00094 4.70312,2.57031 1.00852,-0.23566 1.46636,-0.05 1.88672,0.76562 1.59459,3.09336 0.2612,4.61016 -3.44531,3.88282 -1.92389,-0.37748 -2.06154,-0.34313 -3.14453,0.875 -1.30464,1.46754 -5.7282,5.20183 -7.16406,6.04297 -0.26199,0.15349 -0.57211,0.21875 -0.95703,0.21875 z M 197.2288,431.8768 c -0.071,0.008 -0.16479,2.1e-4 -0.24609,-0.0273 -0.66446,-0.22289 -0.93698,-1.50478 -0.35547,-1.64062 0.24737,-0.0578 0.62376,0.0761 0.84765,0.30078 0.4701,0.47169 0.25166,1.30923 -0.24609,1.36718 z m 65.26952,-0.13671 c -0.93269,-0.0231 -1.81493,-0.44403 -2.29687,-1.17579 -1.33286,-2.02359 1.92398,-4.60231 4.45703,-3.52734 1.34036,0.56878 1.29421,2.9584 -0.082,4.01953 -0.59344,0.45742 -1.35268,0.70124 -2.07813,0.6836 z m 33.22266,-0.65625 c -0.0647,0.007 -0.12529,-3e-4 -0.19141,0 -0.46272,0.002 -0.94436,-0.15164 -1.44922,-0.46485 -2.37817,-1.4754 -1.94882,-5.09986 0.6836,-5.71484 1.1956,-0.2793 1.61905,-0.0854 2.57031,1.23047 1.05997,1.46636 1.10788,1.68167 0.51953,3.03515 -0.50688,1.16603 -1.26848,1.82128 -2.13281,1.91407 z m -141.91406,-0.54688 c -1.73439,-0.005 -2.87536,-1.42912 -1.99609,-2.84375 0.5918,-0.95231 3.03875,-1.48518 3.52734,-0.76562 0.61271,0.90234 0.10547,3.33024 -0.73828,3.52734 -0.26657,0.062 -0.54524,0.082 -0.79297,0.082 z m 174.99999,-0.57422 c -1.18244,0.0234 -2.53225,-1.21147 -3.30859,-3.39062 -1.4778,-4.14797 -0.45918,-6.06661 2.24219,-4.21094 2.71082,1.86214 3.6827,3.99354 2.8164,6.15234 -0.39403,0.98184 -1.04055,1.43499 -1.75,1.44922 z m -75.66015,-0.95703 c -0.0367,0.002 -0.0716,0.002 -0.10938,0 -0.36222,-0.0213 -0.7946,-0.219 -1.36718,-0.57422 -1.56501,-0.97095 -1.92941,-2.83619 -0.82032,-4.07422 1.23181,-1.37496 2.36115,-1.53504 3.52735,-0.49218 1.36158,1.21763 1.43022,1.92407 0.38281,3.60937 -0.63851,1.02723 -1.06579,1.50446 -1.61328,1.53125 z m -66.30859,-0.41016 c -0.23667,0.0143 -0.49569,-0.18102 -0.68359,-0.60156 -0.22316,-0.49919 -0.0822,-0.86937 0.41016,-0.98437 0.45922,-0.10731 0.80898,0.14787 0.82031,0.60156 0.0152,0.61191 -0.24258,0.96573 -0.54688,0.98437 z m 98.92968,-1.17578 c -0.41581,-0.001 -0.84823,-0.1795 -1.33984,-0.51953 -1.16936,-0.8089 -1.63181,-2.28343 -1.01172,-3.28125 0.53231,-0.85643 2.55372,-1.35609 3.85547,-0.95703 1.31339,0.40265 1.49154,1.73895 0.46484,3.28125 -0.65864,0.98948 -1.27571,1.47656 -1.96875,1.47656 z m 32.6211,-0.51953 c -0.0417,10e-4 -0.0938,0.003 -0.13672,0 -0.68734,-0.0489 -1.53015,-0.61553 -2.73438,-1.69531 -0.87964,-0.7888 -1.8545,-1.18545 -2.48828,-1.03906 -3.62788,0.83793 -7.40631,-0.56523 -8.91406,-3.28125 l -0.95703,-1.72266 -2.81641,0.82031 c -2.55102,0.74456 -3.26056,0.71321 -7.73828,-0.35547 -5.10283,-1.21787 -6.59643,-2.09271 -9.46094,-5.52343 -1.49211,-1.78702 -1.53399,-1.82143 -2.48828,-0.82032 -2.63187,2.76071 -5.87307,0.3922 -3.77344,-2.76171 1.03467,-1.55441 1.36835,-1.65842 2.73438,-0.90235 1.27051,0.70312 2.01106,-0.0329 2.40625,-2.43359 0.24543,-1.49133 0.15543,-1.66603 -1.5586,-2.625 -2.19991,-1.23058 -2.3403,-1.65373 -1.17578,-3.52735 0.88138,-1.41806 1.48058,-1.76129 2.78907,-1.55859 0.35964,0.0557 0.78479,0.61125 0.92968,1.23047 0.14498,0.61925 0.53126,1.22455 0.875,1.33984 0.34365,0.11525 3.23441,-0.35871 6.42578,-1.0664 8.19212,-1.81673 9.48673,-1.37868 13.07032,4.62109 2.40646,4.02899 2.79915,4.24917 5.11328,3.00781 2.21416,-1.18772 3.0863,-1.02968 6.91797,1.14844 1.45705,0.82824 3.56189,1.58142 4.67578,1.66797 2.09267,0.16268 3.42832,0.89924 3.6914,2.02344 0.24924,1.06486 -1.53862,3.50864 -2.78906,3.80078 -1.42412,0.33272 -1.57545,1.16858 -0.79297,4.51172 0.45654,1.95072 0.44277,2.88504 -0.10937,3.77343 -0.55474,0.89252 -1.06679,1.35346 -1.69531,1.36719 z m -42.51954,-3.39062 c -0.0799,0.001 -0.18674,0.003 -0.27343,0 -1.07859,-0.0461 -2.6909,-0.52287 -5.03125,-1.36719 -1.78464,-0.64373 -3.89281,-1.11721 -4.70313,-1.06641 -1.16135,0.0728 -1.63254,-0.23028 -2.29687,-1.42187 -0.77066,-1.38226 -0.7743,-1.64805 0.27343,-2.95313 2.54406,-3.16907 2.84306,-3.83612 2.46094,-5.46875 -0.24717,-1.05633 -0.0524,-2.14116 0.51953,-3.14453 0.89789,-1.57367 1.63236,-1.99023 2.78907,-1.58594 0.41083,0.14356 0.89315,1.39593 1.3125,3.33594 0.36883,1.70719 1.07868,3.90501 1.58593,4.89453 1.10568,2.1566 3.11516,4.56436 3.69141,4.42969 0.64603,-0.15091 1.36094,1.1509 1.33984,2.46094 -0.0198,1.23246 -0.46929,1.86326 -1.66797,1.88672 z m -109.18358,-0.10938 c -0.70592,0.0329 -1.20228,-0.61014 -0.90234,-1.47656 0.36828,-1.06359 1.01165,-1.53202 1.58593,-1.17578 0.75572,0.46884 0.78385,1.88472 0.0547,2.3789 -0.2581,0.175 -0.50294,0.26265 -0.73828,0.27344 z m -9.73437,-3.11719 c -0.69929,0.0106 -1.10757,-0.55429 -0.98438,-1.44921 0.11326,-0.82195 1.44722,-1.42669 2.16016,-0.98438 0.57208,0.35492 -0.0895,2.2292 -0.84766,2.40625 -0.11114,0.026 -0.22826,0.0273 -0.32812,0.0273 z m 174.34374,-0.46484 c -1.39225,-0.036 -3.27407,-1.15983 -3.52735,-2.24219 -0.19871,-0.84907 1.87451,-3.8621 2.76172,-4.01953 0.31233,-0.0553 1.10065,-0.0142 1.72266,0.082 2.91237,0.45055 2.57709,5.42713 -0.41016,6.125 -0.0868,0.0206 -0.17967,0.019 -0.27344,0.0274 -0.0879,0.008 -0.18059,0.0299 -0.27343,0.0273 z m -75.35938,-2.10547 c -0.0601,0.005 -0.10488,-10e-5 -0.16406,0 -0.88835,0.004 -1.6598,-0.51453 -1.85938,-1.36719 -0.44145,-1.88617 1.81614,-3.22138 3.0625,-1.80468 1.15483,1.31262 1.15001,2.25119 -0.0547,2.87109 -0.32036,0.16488 -0.66376,0.27479 -0.98438,0.30078 z m -10.25391,-2.73437 c -1.16529,0.0282 -2.32651,-0.65385 -2.57031,-1.69532 -0.43883,-1.87513 2.59704,-3.93367 4.26563,-2.89843 0.79092,0.49078 1.24567,2.05553 0.90234,3.03515 -0.12389,0.35326 -0.78857,0.93113 -1.47656,1.28516 -0.35222,0.18126 -0.73266,0.26411 -1.1211,0.27344 z m -32.59375,-0.71094 c -0.033,0.008 -0.0756,-0.003 -0.10937,0 -0.034,0.003 -0.0506,0.006 -0.082,0 -0.18844,-0.0327 -0.36402,-0.15852 -0.41016,-0.35547 -0.0614,-0.26268 0.0926,-0.54012 0.35547,-0.60156 0.26286,-0.0614 0.54008,0.0928 0.60156,0.35547 0.0614,0.26261 -0.0926,0.54015 -0.35547,0.60156 z m 131.57813,-1.69531 c -0.9176,0.0121 -1.68596,-0.4057 -2.81641,-1.44922 -1.95341,-1.80325 -3.87636,-2.304 -6.50781,-1.72266 -1.36135,0.30088 -2.03655,0.16659 -2.84375,-0.60156 -1.51847,-1.44499 -1.32679,-3.24035 0.57422,-5.16797 1.83407,-1.85954 2.31238,-3.15043 1.85937,-5.08594 -0.46804,-1.99976 0.39274,-3.76887 2.05079,-4.15625 1.13562,-0.26521 1.50994,-0.1093 1.99609,0.90235 2.20986,4.59891 3.53054,5.22717 5.96094,2.84375 1.07969,-1.05882 1.5746,-1.26936 2.46093,-1.03907 1.48735,0.38656 2.00734,0.91272 2.37891,2.46094 0.32751,1.36491 -0.57415,2.56343 -2.24219,2.95313 -0.51394,0.12 -1.32046,0.71694 -1.80468,1.33984 -0.84797,1.09055 -0.85195,1.23151 0.38281,3.96484 1.52324,3.37201 1.30285,4.42185 -1.03906,4.73047 -0.13833,0.0182 -0.27902,0.0273 -0.41016,0.0274 z m -141.69531,-0.46485 c -0.0362,0.008 -0.075,0 -0.10938,0 -0.51095,-0.0318 -0.73912,-1.2047 -0.27344,-1.66797 0.20935,-0.20818 0.56543,-0.17351 0.79297,0.0547 0.48593,0.48754 0.23534,1.46248 -0.41015,1.61328 z m 23.07812,-2.95312 c -0.0307,0.002 -0.0777,0.002 -0.10937,0 -0.39394,-0.0187 -0.85624,-0.2624 -1.53125,-0.71094 -1.72472,-1.14593 -1.91319,-2.33383 -0.54688,-3.25391 1.3723,-0.92406 1.0791,-0.88713 2.54297,-0.30078 1.50124,0.60137 1.85669,1.86134 0.92969,3.19922 -0.48299,0.69706 -0.82487,1.04467 -1.28516,1.06641 z m 32.42969,-1.80469 c -1.29867,-0.0128 -1.84721,-1.1935 -0.875,-2.32422 0.90546,-1.0531 1.19643,-1.09826 2.10547,-0.41015 1.27579,0.96559 0.95087,2.31065 -0.62891,2.67968 -0.21284,0.0495 -0.41605,0.0547 -0.60156,0.0547 z m 66.08984,-0.73828 c -0.69807,-0.0152 -1.54134,-0.27935 -2.57031,-0.84766 -1.27246,-0.70278 -2.79985,-1.17673 -3.39062,-1.03906 -0.59084,0.13767 -1.82746,-0.12919 -2.73438,-0.60156 -0.90691,-0.47244 -2.06609,-0.91779 -2.57031,-0.95703 -1.34027,-0.10417 -1.93735,-1.2502 -1.39453,-2.73438 0.81674,-2.23315 2.49269,-2.15865 5.38672,0.30078 2.62085,2.22728 3.70007,2.44504 5.33203,1.01172 1.92343,-1.68923 4.51154,-0.006 4.07422,2.65235 -0.24897,1.51252 -0.96941,2.24034 -2.13282,2.21484 z m -108.88281,-0.0273 c -1.32091,0.0603 -2.54739,-1.6784 -2.21484,-3.33594 0.32811,-1.63488 2.70311,-2.21045 4.07422,-0.98438 0.54589,0.48817 1.07337,1.15597 1.14843,1.47657 0.19477,0.83228 -1.46487,2.51341 -2.76172,2.8164 -0.0887,0.0206 -0.15801,0.0224 -0.24609,0.0274 z m 32.59375,-1.1211 c -0.3453,-0.009 -0.73016,-0.2472 -1.44922,-0.76562 -1.35966,-0.98022 -1.4587,-1.20794 -1.0664,-2.26953 0.58248,-1.57661 2.4051,-2.17406 4.10156,-1.33985 1.61353,0.79327 1.46957,1.96527 -0.41016,3.66406 -0.5371,0.48528 -0.83053,0.72025 -1.17578,0.71094 z m -42.13672,-2.26953 c -1.0178,0.0188 -2.08526,-0.46241 -2.40625,-1.28516 -0.48679,-1.24824 0.42275,-3.18811 1.64063,-3.47265 0.4663,-0.10892 1.27737,0.0557 1.80468,0.38281 1.17675,0.7301 1.4842,2.83019 0.54688,3.77344 -0.39169,0.3942 -0.97522,0.59029 -1.58594,0.60156 z m 32.6211,-0.51953 c -0.81605,0.0198 -1.67496,-0.33093 -2.16016,-1.09375 -0.86671,-1.36275 -0.69351,-2.45123 0.62891,-3.85547 0.67663,-0.71851 0.9918,-0.796 2.02343,-0.38281 1.38963,0.55662 2.08319,2.57347 1.42188,4.1289 -0.33265,0.78252 -1.09793,1.18352 -1.91406,1.20313 z M 172.78349,402.537 c -0.0532,0.0123 -0.11488,-0.002 -0.16407,0 -0.0492,0.001 -0.0951,0.003 -0.13671,0 -0.24934,-0.0185 -0.37653,-0.15732 -0.30079,-0.38281 0.10101,-0.30059 0.28236,-0.55068 0.38282,-0.57422 0.10047,-0.0235 0.35028,0.13076 0.57422,0.35547 0.22393,0.22465 0.0698,0.50225 -0.35547,0.60156 z m 98.90233,-0.84766 c -0.0661,0.005 -0.12539,0.002 -0.19141,0 -0.19798,-0.005 -0.38467,-0.0389 -0.57421,-0.10937 -1.8982,-0.70617 -2.48084,-2.15762 -1.47657,-3.77344 0.94915,-1.52694 1.48326,-1.77904 3.25391,-1.5039 1.46062,0.22696 2.00845,1.12999 1.64062,2.67968 -0.35653,1.50276 -1.50613,2.61318 -2.65234,2.70703 z m 32.62109,-1.20312 c -0.0541,0.005 -0.11183,0.002 -0.16406,0 -1.56675,-0.0375 -2.77101,-2.98874 -1.5039,-4.10156 0.98836,-0.86786 1.30004,-0.9469 2.51562,-0.57422 1.93508,0.59322 1.41366,4.15845 -0.68359,4.64844 -0.0534,0.0123 -0.10991,0.0222 -0.16407,0.0273 z m -141.39452,-0.71094 c -0.34163,0.009 -0.65762,-0.2295 -0.73828,-0.57422 -0.17451,-0.74574 0.36048,-1.07727 1.03906,-0.65625 0.67856,0.42102 0.58234,1.02874 -0.16406,1.20313 -0.0493,0.0103 -0.0882,0.0273 -0.13672,0.0273 z m 32.8125,-0.13672 c -0.47914,0.006 -0.95831,-0.20967 -1.33984,-0.76562 -0.79225,-1.15461 -0.0393,-2.38379 1.69531,-2.78906 0.83297,-0.19456 1.14581,0.0189 1.33985,0.84765 0.35817,1.53046 -0.64126,2.69331 -1.69532,2.70703 z m 33.33202,-0.21875 c -0.46776,0.0172 -0.96589,-0.0924 -1.25781,-0.27343 -1.12136,-0.69573 -1.43623,-2.96837 -0.51953,-3.77344 0.98825,-0.86791 1.32739,-0.97429 2.54297,-0.60156 1.09143,0.33467 1.77983,2.5769 1.12109,3.63671 -0.24168,0.38891 -0.89723,0.80076 -1.44922,0.92969 -0.13798,0.0324 -0.28161,0.0762 -0.4375,0.082 z m 32.75782,-1.14843 c -0.25439,-0.003 -0.56381,-0.0899 -1.01172,-0.21875 -2.00092,-0.57566 -2.47578,-2.03993 -1.17578,-3.66407 1.252,-1.56406 1.98649,-1.80839 3.22656,-1.03906 1.33517,0.82837 1.44529,2.05423 0.35547,3.69141 -0.55764,0.83769 -0.82881,1.16242 -1.28516,1.20312 -0.0343,0.003 -0.073,0.0278 -0.10937,0.0274 z m -141.74999,-0.57422 c -0.34159,0.009 -0.63029,-0.20216 -0.71094,-0.54688 -0.0923,-0.39401 0.15256,-0.81024 0.54687,-0.90234 0.39431,-0.0921 0.78284,0.15287 0.875,0.54687 0.0922,0.39396 -0.15255,0.7829 -0.54687,0.875 -0.0494,0.0112 -0.11547,0.0274 -0.16406,0.0274 z m 174.9453,-0.13672 c -0.27915,-0.005 -0.6332,-0.0446 -1.03906,-0.16406 -2.42539,-0.71412 -2.92375,-1.61206 -1.94141,-3.3086 1.02379,-1.76798 2.06056,-2.12517 3.47266,-1.14844 1.27355,0.88086 1.64602,3.13295 0.65625,4.12891 -0.33925,0.34144 -0.68324,0.50054 -1.14844,0.49219 z m -109.34765,-0.73828 c -0.56813,0.0468 -1.06214,-0.56063 -0.98437,-1.5586 0.1065,-1.36839 1.83932,-1.85554 2.13281,-0.60156 0.1154,0.49307 -0.0561,1.23699 -0.38281,1.66797 -0.24658,0.32525 -0.50745,0.4711 -0.76563,0.49219 z m 32.45702,-0.0547 c -0.0796,0.004 -0.1424,0.004 -0.21875,0 -0.28184,-0.0132 -0.52984,-0.0895 -0.73828,-0.21875 -0.77015,-0.47787 -0.83826,-0.73862 -0.46484,-2.21484 0.49895,-1.9727 1.76716,-2.45607 3.47266,-1.3125 0.88395,0.59267 1.11892,1.07142 0.92968,1.77734 -0.27491,1.02534 -1.78703,1.90879 -2.98047,1.96875 z m 108.85547,-0.49222 c -1.15405,0.0309 -2.27724,-0.48554 -2.51562,-1.5039 -0.23384,-0.99934 1.4865,-3.36434 2.65234,-3.63672 0.43783,-0.10226 1.11459,0.0321 1.50391,0.27343 0.98922,0.61378 1.43195,2.83136 0.73828,3.7461 -0.55493,0.73177 -1.48129,1.09706 -2.37891,1.12109 z m 33.00391,-0.57422 c -1.15492,0.004 -2.19172,-0.75632 -2.48828,-2.02343 -0.55282,-2.36213 1.72849,-4.34539 3.82812,-3.33594 2.02444,0.97335 2.15696,3.5805 0.2461,4.86719 -0.50294,0.33857 -1.061,0.49218 -1.58594,0.49218 z m -107.78906,-0.1914 c -0.79,0.0554 -1.72035,-0.59246 -2.37891,-1.96875 -1.14131,-2.38553 0.74963,-4.14705 2.87109,-2.67969 0.80725,0.5583 1.0163,1.07323 0.98438,2.40625 -0.034,1.42493 -0.68655,2.18672 -1.47656,2.24219 z m 32.21093,-0.82032 c -1.01775,-0.0109 -1.97583,-0.76094 -2.29687,-2.13281 -0.50285,-2.14831 2.17,-3.86753 4.12891,-2.65234 1.29922,0.8061 1.42091,1.74773 0.38281,3.41797 -0.57479,0.92485 -1.42324,1.37552 -2.21485,1.36718 z m -75.27734,-1.25781 c -0.2305,0.006 -0.52271,-0.13955 -1.01172,-0.41015 -0.64113,-0.35488 -1.30054,-1.27127 -1.47656,-2.02344 -0.25627,-1.09488 -0.10375,-1.39512 0.76562,-1.58594 0.59339,-0.13006 1.50078,-0.10554 2.02344,0.0547 1.26364,0.3874 1.53091,1.77577 0.60156,3.11719 -0.36369,0.52475 -0.57294,0.76254 -0.82031,0.82031 -0.0307,0.007 -0.049,0.0266 -0.082,0.0273 z m 108.60938,-0.10937 c -0.0511,0.005 -0.11276,-10e-4 -0.16407,0 -1.5912,0.0381 -3.2773,-1.42738 -2.84375,-2.67969 0.60029,-1.73366 1.7914,-2.5528 3.17188,-2.21484 2.86161,0.70057 2.98125,4.18168 0.16406,4.83984 -0.10674,0.025 -0.21918,0.0454 -0.32812,0.0547 z m -75.79688,-0.57422 c -0.0849,0.004 -0.1597,0.003 -0.24609,0 -0.0865,-0.002 -0.18241,0.01 -0.27344,0 -1.64351,-0.17881 -3.10208,-2.13517 -2.625,-3.52735 0.46543,-1.35853 3.30156,-2.15993 4.56641,-1.28515 2.22338,1.53786 1.12428,4.68576 -1.42188,4.8125 z m -66.8828,-0.41016 c -0.0293,10e-4 -0.0552,0.002 -0.082,0 -0.0715,-0.006 -0.11495,-0.0243 -0.16407,-0.0547 -0.1959,-0.12157 0.0656,-0.31319 0.57422,-0.41015 0.56218,-0.10721 0.70099,0.005 0.35547,0.24609 -0.20528,0.14345 -0.47887,0.21279 -0.68359,0.21875 z m 175.30077,-0.13672 c -0.0743,0 -0.14736,0.005 -0.21875,0 -1.99848,-0.13658 -3.31593,-2.35467 -2.10547,-4.10156 0.91578,-1.3217 2.03758,-1.51923 3.47266,-0.62891 2.23994,1.38967 1.96477,4.08081 -0.46485,4.64844 -0.23021,0.0538 -0.46085,0.08 -0.68359,0.082 z m 33.52344,-0.21875 c -1.26066,0.0645 -3.40221,-1.34193 -3.66406,-2.46093 -0.55108,-2.35448 2.60708,-4.87969 4.5664,-3.66407 1.79542,1.11386 1.28523,5.61034 -0.68359,6.07032 -0.0754,0.0171 -0.13466,0.0498 -0.21875,0.0547 z M 274.6116,391.4354 c -0.0626,0.004 -0.12942,7e-4 -0.1914,0 -1.92151,-0.0189 -3.48359,-2.26478 -2.46094,-3.91016 0.62214,-1.001 2.86814,-1.41864 3.96484,-0.73828 1.93296,1.19933 1.37363,4.03473 -0.90234,4.56641 -0.13544,0.0319 -0.2765,0.0732 -0.41016,0.082 z m 32.94922,-0.32813 c -0.0596,0.005 -0.13134,0.004 -0.19141,0 -0.42026,-0.0296 -0.83728,-0.28875 -1.36718,-0.79297 -2.19757,-2.09122 0.10669,-6.35787 2.59765,-4.8125 1.21389,0.75309 1.50994,3.43354 0.51953,4.53907 -0.61431,0.68566 -1.08124,1.02373 -1.55859,1.0664 z M 132.42411,390.7518 c -0.0289,0.002 -0.0554,10e-4 -0.082,0 -0.35282,-0.0121 -0.5264,-0.31163 -0.35547,-0.82031 0.24685,-0.73426 0.94246,-0.91885 1.47656,-0.38281 0.22554,0.22622 0.0837,0.64173 -0.30078,0.90234 -0.27335,0.18529 -0.53617,0.28328 -0.73828,0.30078 z m 67.10155,-0.65625 c -0.55341,-0.009 -1.1238,-0.25327 -1.66796,-0.76562 -0.79132,-0.74505 -0.83804,-1.02604 -0.21875,-2.35156 0.76625,-1.63973 1.50549,-2.01743 2.59765,-1.33985 0.97717,0.6062 1.41554,2.82563 0.73828,3.71875 -0.37744,0.49773 -0.89579,0.74712 -1.44922,0.73828 z m 32.29297,-0.57421 c -0.23255,-0.003 -0.50073,-0.0295 -0.82031,-0.082 -2.19202,-0.36017 -2.70639,-1.41716 -1.50391,-3.0625 1.26676,-1.73296 2.53568,-2.03384 3.80079,-0.90234 1.37794,1.23229 1.42165,1.93874 0.24609,3.17188 -0.63479,0.66589 -1.02509,0.88431 -1.72266,0.875 z m 108.96485,-0.19141 c -2.0491,0.008 -4.18487,-2.21102 -3.33594,-3.91016 0.542,-1.08463 2.84259,-1.57791 4.01953,-0.84765 0.61972,0.38444 1.06201,1.23709 1.23047,2.3789 0.22636,1.53484 0.0816,1.83166 -1.06641,2.24219 -0.28028,0.1002 -0.55495,0.13672 -0.84765,0.13672 z m 32.83984,-0.54688 c -0.62691,0.0123 -1.34297,-0.21058 -2.10547,-0.68359 -3.27808,-2.03379 -1.40981,-5.94926 2.29688,-4.8125 1.72938,0.5304 2.41584,1.75966 1.96875,3.52734 -0.3198,1.26423 -1.11518,1.94815 -2.16016,1.96875 z M 264.5491,388.48227 c -0.15406,0 -0.32575,0.002 -0.49219,-0.0547 -1.27808,-0.43752 -1.81827,-2.19322 -1.09375,-3.5 0.76975,-1.38825 1.49156,-1.56202 2.76172,-0.6836 1.42077,0.98266 1.51321,2.1188 0.30078,3.39063 -0.58162,0.61009 -1.01448,0.84766 -1.47656,0.84765 z m 33.41406,-0.60156 c -1.18206,0.0427 -3.17007,-1.42151 -3.44531,-2.59766 -0.23004,-0.98266 1.01895,-2.87614 2.05078,-3.11718 0.27735,-0.0648 1.07,0.11047 1.75,0.38281 2.24489,0.89923 2.13824,4.74588 -0.13672,5.27734 -0.0709,0.0162 -0.13993,0.0224 -0.21875,0.0274 l 0,0.0273 z m -109.9492,-1.06641 c -0.0289,10e-4 -0.0555,10e-4 -0.082,0 -0.35308,-0.021 -0.48988,-0.30832 -0.6289,-0.90234 -0.44916,-1.91907 1.33015,-3.61097 2.29687,-2.1875 0.83883,1.23537 0.52851,2.407 -0.76562,2.87109 -0.35181,0.12621 -0.61719,0.20941 -0.82031,0.21875 z m 142.26952,-0.1914 c -0.1591,-0.005 -0.32231,-0.0209 -0.49219,-0.0547 -1.37753,-0.27591 -2.1825,-2.31921 -1.66797,-4.23828 0.39918,-1.48914 2.37736,-1.82596 3.66406,-0.60156 1.97754,1.88185 0.8817,4.9674 -1.5039,4.89453 z m 33.4414,-0.60156 c -0.51389,0.0423 -1.11123,-0.1959 -1.9414,-0.71094 -1.74218,-1.08085 -1.90272,-2.45387 -0.46485,-4.53906 1.12137,-1.6262 1.4247,-1.72795 2.65235,-0.875 1.67978,1.16697 2.17871,2.80624 1.39453,4.48437 -0.5,1.06997 -0.97992,1.58623 -1.64063,1.64063 z m -142.07812,-0.082 c -1.00706,0.0129 -2.18117,-0.42778 -2.32422,-1.03906 -0.29285,-1.25112 2.05494,-3.30483 3.0625,-2.67969 0.77556,0.48107 1.03442,2.95771 0.35547,3.41797 -0.22939,0.15552 -0.55442,0.24697 -0.90235,0.27344 -0.0651,0.005 -0.12427,0.0266 -0.1914,0.0273 z m -75.52343,-0.46484 c -0.56982,0.0482 -1.16426,-0.21406 -1.75,-0.76562 -1.75025,-1.64808 0.85393,-4.62125 2.92578,-3.33594 1.03631,0.64295 1.18179,1.86999 0.35547,3.0625 -0.44246,0.63854 -0.96128,0.991 -1.53125,1.03906 z m -33.19531,-0.19141 c -0.2293,0.006 -0.43846,-0.15296 -0.49219,-0.38281 -0.0615,-0.26262 0.11995,-0.54021 0.38281,-0.60156 0.26291,-0.0614 0.51274,0.0928 0.57422,0.35547 0.0615,0.26263 -0.0925,0.5401 -0.35547,0.60156 -0.033,0.008 -0.0766,0.0266 -0.10937,0.0273 z m 141.17577,-0.79296 c -0.42026,0.0136 -0.80009,-0.14021 -1.03906,-0.49219 -0.57758,-0.85045 0.16834,-1.75229 1.75,-2.13281 0.87662,-0.21084 1.1249,-0.0315 1.20312,0.84765 0.0861,0.96804 -0.98929,1.74694 -1.91406,1.77735 z m 141.75,-0.13672 c -1.09569,0.0308 -2.17148,-0.6596 -2.59765,-1.91407 -0.75658,-2.22712 1.34075,-4.14063 3.55468,-3.2539 1.72637,0.69156 2.2022,2.95679 0.90235,4.32031 -0.53926,0.56567 -1.20198,0.82902 -1.85938,0.84766 z m -76.23438,-0.71094 c -1.67083,-0.027 -2.14236,-1.74671 -0.95703,-3.52734 0.96799,-1.45421 1.93026,-1.82732 2.98047,-1.17579 1.85529,1.15104 0.31526,4.74089 -2.02344,4.70313 z m -32.375,-0.082 c -0.54875,0.01 -1.03761,-0.14273 -1.23046,-0.57422 -0.75924,-1.69883 1.66922,-3.78493 2.67968,-2.29688 0.23401,0.34468 0.47256,1.03489 0.49219,1.53125 0.0312,0.78729 -1.02683,1.32316 -1.94141,1.33985 z m -108.28124,-0.19141 c -0.0394,0.003 -0.0709,-10e-5 -0.10937,0 -1.1923,0.005 -1.93891,-1.53665 -1.17578,-2.54297 0.40253,-0.53087 0.77243,-0.59541 1.53125,-0.27343 1.4134,0.59983 1.23088,2.6859 -0.2461,2.8164 z m 173.68749,-0.27344 c -1.18418,0.0103 -1.84428,-0.71376 -2.21484,-2.29687 -0.3713,-1.58662 0.78707,-4.3514 1.94141,-4.62109 0.28674,-0.067 1.17265,0.27166 1.96875,0.76562 2.65685,1.64833 2.17076,5.32325 -0.79297,6.01563 -0.33086,0.0775 -0.62907,0.13671 -0.90235,0.13671 z m -140.24609,-0.0547 c -0.0682,0.004 -0.14704,9e-4 -0.21875,0 -1.07533,-0.0149 -2.50292,-0.53729 -2.65234,-1.17578 -0.10602,-0.45272 0.11314,-1.25772 0.49218,-1.80469 0.79829,-1.15212 0.79948,-1.14925 2.05079,-0.76563 1.04824,0.32133 1.85481,2.76988 1.14843,3.47266 -0.17313,0.17223 -0.45675,0.25432 -0.82031,0.27344 z m 173.96094,-0.73828 c -0.0499,10e-4 -0.0862,-0.0249 -0.13672,-0.0274 -0.53888,-0.0264 -1.12711,-0.27836 -1.66797,-0.79297 -0.81439,-0.77507 -1.12869,-1.60125 -1.3125,-3.47265 -0.31746,-3.23176 -1.52258,-5.38098 -4.64843,-8.25782 -2.87015,-2.64157 -3.24118,-3.45282 -2.24219,-4.89453 1.12003,-1.61643 3.33632,-1.75249 8.5039,-0.51953 2.6789,0.63923 5.33298,1.61467 5.90625,2.16016 1.9006,1.80855 1.38893,6.9419 -0.79296,7.875 -1.23292,0.5272 -1.76811,1.951 -1.36719,3.66406 0.55479,2.37046 -0.69478,4.22421 -2.24219,4.26563 z m -251.09765,-0.57422 c -0.47903,-0.0171 -0.76173,-0.22559 -0.92969,-0.60157 -0.464,-1.03812 0.19191,-2.39692 1.28516,-2.65234 0.4614,-0.10784 1.18002,0.0481 1.58594,0.35547 1.36455,1.0328 0.96898,2.30996 -0.84766,2.73437 -0.45662,0.10672 -0.80635,0.17437 -1.09375,0.16407 z m 33.85156,-0.62891 c -0.0404,10e-4 -0.0683,0.002 -0.10937,0 -0.43805,-0.0245 -0.89945,-0.22007 -1.33984,-0.65625 -0.97767,-0.96849 -0.43642,-2.53218 1.09375,-3.08984 0.88097,-0.32108 1.30026,-0.17382 1.69531,0.57422 0.86437,1.63677 -0.0861,3.14664 -1.33985,3.17187 z m 32.64843,-0.62891 c -0.0665,0.003 -0.12552,0.003 -0.1914,0 -0.82008,-0.0415 -1.58279,-0.54841 -1.83204,-1.61328 -0.46731,-1.99658 1.72836,-3.63552 3.44532,-2.57031 0.97856,0.6071 1.10255,0.91658 0.875,2.05078 -0.2708,1.34986 -1.29991,2.08978 -2.29688,2.13281 z m 108.55469,-0.13671 c -0.054,0.002 -0.11143,10e-4 -0.16406,0 -1.63081,-0.0337 -2.61005,-1.69284 -1.50391,-3.47266 0.94405,-1.51895 1.72777,-1.70774 3.08984,-0.76563 1.48456,1.02675 1.39661,3.07975 -0.16406,3.88282 -0.44648,0.22977 -0.85983,0.3383 -1.25781,0.35547 z m -33.44141,-0.16407 c -0.48289,0.006 -0.7421,-0.2052 -0.84765,-0.65625 -0.40123,-1.71438 1.48373,-3.23233 2.3789,-1.91406 0.73642,1.08447 0.29651,2.18913 -0.98437,2.48828 -0.21161,0.0497 -0.3859,0.082 -0.54688,0.082 z m 66.63672,-0.1914 c -1.33393,0.0304 -3.10498,-0.99423 -3.39062,-2.21485 -0.35159,-1.50214 0.88585,-3.44557 2.40625,-3.80078 0.65722,-0.15356 1.70282,0.0351 2.35156,0.4375 0.64874,0.40249 1.27839,1.14442 1.39453,1.64063 0.26786,1.1446 -0.72861,3.067 -1.94141,3.74609 -0.23915,0.13394 -0.51247,0.18455 -0.82031,0.19141 z m -217.65624,-0.4375 c -0.0413,0.004 -0.068,0 -0.10937,0 -0.28974,7e-5 -0.57188,-0.11873 -0.84766,-0.35547 -0.97768,-0.83907 -1.04993,-2.46928 -0.13672,-3.60938 0.89577,-1.11832 1.73041,-1.17711 2.59766,-0.1914 1.22355,1.39065 -0.0745,4.00665 -1.50391,4.15625 z m 250.30468,-0.49219 c -1.33562,0.0106 -2.61286,-0.76109 -2.95312,-2.21484 -0.38065,-1.62641 0.68804,-3.66106 2.10547,-3.99219 0.53768,-0.12565 1.6101,0.16234 2.40625,0.65625 1.75502,1.08884 2.15551,2.47055 1.17578,4.04687 -0.63343,1.01919 -1.69554,1.49557 -2.73438,1.50391 z m -217.16405,-0.57422 c -0.18123,0.005 -0.37299,-0.0404 -0.57422,-0.10937 -1.18919,-0.4073 -1.88914,-2.07259 -1.33985,-3.17188 0.51023,-1.02116 1.2477,-1.20597 2.54297,-0.65625 1.83641,0.77929 1.16396,3.68372 -0.46484,3.91016 -0.0581,0.008 -0.10367,0.026 -0.16406,0.0273 z m 141.72264,-0.82036 c -0.0459,0.003 -0.0907,8e-4 -0.13672,0 -0.68931,-0.0118 -1.3977,-0.42859 -2.3789,-1.39453 -1.5928,-1.568 -1.75322,-1.61326 -4.21094,-1.03907 -1.86502,0.43573 -3.06192,0.41003 -4.42969,-0.10937 -4.32645,-1.64332 -6.97903,-7.15489 -5.16797,-10.71875 1.46515,-2.88322 4.5044,-4.98484 6.45313,-4.45703 1.62746,0.44077 4.18846,1.9703 6.20703,3.6914 2.15245,1.83532 2.7529,3.76845 1.91406,6.31641 -0.66987,2.03458 -0.0803,2.93078 1.83203,2.76172 2.25668,-0.1995 2.46117,4.37065 0.21875,4.89453 -0.106,0.025 -0.19591,0.0483 -0.30078,0.0547 z m -33.30468,-0.60156 c -0.15906,0.004 -0.32777,-0.062 -0.49219,-0.16407 -0.49556,-0.30744 -0.5484,-0.59798 -0.27344,-1.14843 0.48822,-0.97719 1.00525,-1.10266 1.53125,-0.32813 0.48542,0.71485 -0.0764,1.62346 -0.76562,1.64063 z m 65.98046,-0.27344 c -1.60311,0.071 -3.05082,-1.8013 -2.26953,-3.9375 0.59345,-1.62266 1.8706,-2.05052 3.25391,-1.09375 1.48179,1.02485 1.76502,3.0179 0.60156,4.23828 -0.49495,0.51922 -1.05159,0.76943 -1.58594,0.79297 z m -141.31249,0 c -0.0697,0.008 -0.12459,9.9e-4 -0.1914,0 -1.00242,-0.0129 -1.68124,-0.96627 -1.5586,-2.54297 0.0776,-0.99596 1.78808,-1.82138 2.65235,-1.28516 0.77323,0.47969 1.01181,2.84519 0.32812,3.3086 -0.433,0.29346 -0.85877,0.47931 -1.23047,0.51953 z m -76.01562,-1.3125 c -0.0613,0.006 -0.1298,0.002 -0.19141,0 -0.43119,-0.0112 -0.85103,-0.18789 -1.03906,-0.46485 -0.44194,-0.6509 0.0693,-2.27091 0.76563,-2.43359 0.19847,-0.0461 0.70523,0.1774 1.12109,0.49219 1.01798,0.77057 0.75125,2.09489 -0.46484,2.3789 -0.0678,0.0162 -0.1214,0.021 -0.19141,0.0273 z m 249.62109,-0.16406 c -0.92156,0.011 -1.78021,-0.36206 -2.32423,-1.06641 -0.7315,-0.94712 -0.67962,-1.23741 0.41016,-2.78906 1.41632,-2.0165 1.52745,-2.08052 3.17188,-1.42188 1.85213,0.74191 2.4105,3.55088 0.90234,4.56641 -0.68551,0.46153 -1.44337,0.7026 -2.16015,0.71094 z m -216.69922,-0.0274 c -1.33071,0.0702 -2.70969,-0.93198 -2.24218,-2.29687 0.33608,-0.9814 2.74392,-2.10972 3.5,-1.64063 0.72311,0.44865 0.93813,2.32155 0.35547,3.08985 -0.41248,0.54393 -1.00839,0.81578 -1.61329,0.84765 z m -42.38281,-1.28515 c -0.2674,-0.009 -0.58772,-0.0987 -1.0664,-0.27344 -0.75796,-0.27675 -1.47929,-0.7787 -1.58594,-1.09375 -0.89124,-2.63433 1.33018,-4.78106 3.52734,-3.41797 1.40404,0.87111 1.60096,2.71708 0.4375,3.9375 -0.58578,0.61455 -0.86687,0.86286 -1.3125,0.84766 z m 292.22265,-0.16407 c -0.10028,0.004 -0.19514,-0.0128 -0.30078,-0.0273 -1.18799,-0.16332 -1.59564,-2.32627 -0.60156,-3.19922 1.10793,-0.97296 1.76628,-1.06921 2.26953,-0.32812 0.99322,1.46254 0.13721,3.4973 -1.36719,3.55468 z m -216.53515,-0.0547 c -0.083,0.0189 -0.1606,0.004 -0.24609,0 -0.3419,-0.0163 -0.73616,-0.21859 -1.3125,-0.60157 -1.3165,-0.87471 -1.33671,-0.92192 -0.71094,-2.05078 0.79917,-1.44146 1.50713,-1.62496 2.78906,-0.73828 1.39595,0.96555 1.49538,1.97747 0.30078,2.89844 -0.32554,0.25096 -0.57134,0.43533 -0.82031,0.49219 z m 141.20312,-0.98438 c -1.39019,0.009 -2.61508,-1.72441 -1.5586,-2.95312 0.75796,-0.88154 0.88866,-0.92449 1.91407,-0.76563 0.97551,0.1511 1.44883,2.84368 0.60156,3.41797 -0.3126,0.21191 -0.63621,0.30078 -0.95703,0.30078 z m -108.91016,-0.21875 c -1.05833,-0.0107 -1.72415,-0.96823 -1.33984,-2.07812 0.46116,-1.33185 1.16326,-1.51451 2.21484,-0.57422 1.24824,1.11631 1.08601,2.2272 -0.38281,2.57031 -0.16456,0.0387 -0.34097,0.082 -0.49219,0.082 z m 142.02344,-0.49219 c -0.92435,0.0465 -1.81007,-0.61221 -2.05078,-1.64062 -0.47061,-2.01101 1.45528,-3.43804 3.03515,-2.24219 1.0271,0.77747 0.8092,3.23869 -0.32812,3.74609 -0.20637,0.0921 -0.44295,0.12593 -0.65625,0.13672 z m -217.57421,-0.0547 c -1.32311,0.0488 -2.19595,-1.51352 -1.53125,-2.84375 0.47464,-0.9499 0.63887,-0.98176 2.21484,-0.62891 2.57974,0.57747 2.14647,3.13601 -0.57422,3.44531 -0.0436,0.005 -0.0667,0.0258 -0.10937,0.0274 z m 65.92577,-1.17579 c -0.0436,0.0102 -0.11346,0.002 -0.16406,0 -0.75813,-0.0336 -2.21209,-1.40521 -2.4336,-2.35156 -0.1928,-0.82397 0.0556,-1.08448 1.14844,-1.33984 0.75641,-0.1767 1.70474,-0.0846 2.10547,0.21875 0.57208,0.43299 0.59733,0.85883 0.19141,1.96875 -0.28442,0.77742 -0.65574,1.45928 -0.84766,1.5039 z m -32.64843,-0.51953 c -0.27337,-0.0154 -0.61651,-0.14134 -1.12109,-0.35547 -0.90514,-0.3841 -0.99087,-0.61538 -0.60156,-1.39453 0.57322,-1.14729 1.41863,-1.34902 2.40625,-0.60156 0.60844,0.46061 0.66911,0.73949 0.32812,1.42188 -0.32986,0.66012 -0.55611,0.95521 -1.01172,0.92968 z m 140.6289,-0.82031 c -0.0353,0.002 -0.0462,-8e-4 -0.082,0 -0.0358,0 -0.0729,0.005 -0.10938,0 -0.92769,-0.12747 -1.19844,-1.00839 -0.60156,-1.96875 0.56827,-0.91424 0.90948,-0.98506 1.77734,-0.32812 0.8365,0.63324 0.0742,2.23312 -0.98437,2.29687 z m 33.44141,-0.0273 c -1.76645,0.0261 -3.16453,-2.7874 -1.88672,-4.1836 0.66295,-0.72445 2.30277,-0.98045 3.08984,-0.49218 1.679,1.04167 1.10837,4.19151 -0.84766,4.64843 -0.1204,0.0284 -0.23767,0.0274 -0.35546,0.0274 z m -217.57421,-0.19141 c -0.22601,0 -0.45421,-0.0496 -0.6836,-0.16406 -1.00486,-0.50117 -1.47737,-2.2301 -0.875,-3.19922 0.63957,-1.02907 2.48535,-1.3307 3.22657,-0.51953 1.2474,1.36509 -0.086,3.88772 -1.66797,3.88281 z m 33.11328,-1.03906 c -0.67923,0.0222 -1.34734,-0.33604 -1.66797,-1.23047 -0.7772,-2.16866 0.35279,-3.5006 2.40625,-2.87109 0.52271,0.16023 1.06004,0.78308 1.20312,1.39453 0.36512,1.56018 -0.80927,2.67025 -1.9414,2.70703 z m 108.47264,-0.38281 c -0.0616,0.002 -0.12839,0.003 -0.1914,0 -0.13439,-0.008 -0.27062,-0.0448 -0.41016,-0.082 -1.50076,-0.40162 -1.76315,-1.84135 -0.54687,-3.11718 1.19303,-1.25141 1.58431,-1.37073 2.51562,-0.79297 1.75149,1.08666 0.54323,3.92913 -1.36719,3.99219 z m -75.93358,-0.54688 c -0.65575,-0.0229 -1.2905,-0.32668 -1.77734,-0.95703 -1.47249,-1.90634 1.06877,-4.0457 3.22656,-2.70703 1.25978,0.78161 1.39622,1.71569 0.41016,2.8164 -0.53283,0.59474 -1.20357,0.8707 -1.85938,0.84766 z m 173.66015,-1.58594 c -0.76593,0 -0.93187,-0.37595 -1.33984,-1.64062 -0.31752,-0.98394 -0.38818,-2.14911 -0.16407,-2.59766 0.49528,-0.99126 3.15188,-1.69987 4.12891,-1.09375 1.01362,0.62888 1.43566,2.87015 0.73828,3.99219 -0.38473,0.61917 -1.23608,1.06215 -2.37891,1.23047 -0.41632,0.0611 -0.72903,0.10945 -0.98437,0.10937 z m -216.34374,-0.76557 c -0.99183,0.0464 -1.85008,-0.5775 -1.94141,-1.61328 -0.0657,-0.74653 0.29444,-1.171 1.3125,-1.50391 0.77268,-0.25271 1.74897,-0.3134 2.16016,-0.16406 1.11118,0.40331 0.77726,2.34054 -0.51953,3.00781 -0.34206,0.176 -0.68113,0.25775 -1.01172,0.27344 z m 184.43358,-0.13672 c -0.34159,0.009 -0.65763,-0.22949 -0.73828,-0.57422 -0.0923,-0.394 0.15256,-0.78285 0.54687,-0.875 0.39437,-0.0921 0.78275,0.15291 0.875,0.54688 0.0921,0.39396 -0.15256,0.78289 -0.54687,0.875 -0.0493,0.0103 -0.0881,0.0273 -0.13672,0.0273 z m -75.96094,0 c -1.53021,-0.0176 -2.06024,-1.57545 -0.875,-2.89844 1.13315,-1.26495 1.56881,-1.35019 2.13282,-0.51953 0.24397,0.35924 0.42143,1.2293 0.41015,1.94141 -0.017,1.04988 -0.25896,1.2972 -1.33984,1.42187 -0.11063,0.0128 -0.22611,0.0274 -0.32813,0.0274 l 0,0.0273 z m 141.58594,-0.27344 c -1.21022,-0.0169 -2.51011,-0.99538 -2.78906,-2.1875 -0.23815,-1.0173 1.34944,-3.44452 2.40625,-3.6914 0.2901,-0.0678 0.90065,0.14171 1.42188,0.46484 l 0,5.16797 c -0.1631,0.0777 -0.33101,0.14727 -0.51954,0.1914 -0.16529,0.0388 -0.34657,0.0547 -0.51953,0.0547 z m -42.73828,-1.83203 c -1.30087,-0.0215 -3.07768,-1.15865 -3.36328,-2.37891 -0.45154,-1.92934 3.40476,-4.31007 5.19531,-3.19921 1.80747,1.12136 1.25678,4.1 -1.01172,5.41406 -0.22233,0.12889 -0.52018,0.16896 -0.82031,0.16406 z m -217.3828,-0.35547 c -0.95755,-0.006 -1.90214,-0.54579 -2.13282,-1.53125 -0.3342,-1.42786 1.57095,-3.10025 3.22657,-2.84375 0.83334,0.12908 1.39812,2.46102 0.82031,3.39063 -0.42672,0.68659 -1.16946,0.98975 -1.91406,0.98437 z m 250.03124,-1.12109 c -0.78899,0.04 -1.41923,-0.52748 -1.83203,-1.66797 -0.84887,-2.34529 1.39923,-3.90139 3.88281,-2.67969 1.60248,0.78821 1.43092,2.03816 -0.49219,3.60938 -0.56442,0.4611 -1.08523,0.71425 -1.55859,0.73828 z m -141.23047,-0.76563 c -0.14008,-5e-5 -0.27679,-0.0585 -0.38281,-0.16406 -0.21214,-0.21284 -0.21146,-0.55371 0,-0.76562 0.21298,-0.21196 0.55352,-0.21123 0.76562,0 0.21216,0.21284 0.21151,0.5536 0,0.76562 -0.10651,0.10612 -0.2427,0.16416 -0.38281,0.16406 z m 98.41015,-1.0664 c -0.45043,0.01 -0.86501,-0.10419 -1.12109,-0.35547 -0.96103,-0.94314 -1.19084,-2.99902 -0.46484,-4.04688 0.90069,-1.29982 1.54581,-1.40965 2.98047,-0.51953 1.36872,0.84918 1.7593,2.06321 1.14843,3.5 -0.34919,0.82137 -1.55209,1.39981 -2.54297,1.42188 z m -141.09375,-0.41016 c -0.1004,0.0103 -0.20689,0 -0.30078,0 -0.65723,0.0131 -1.14313,-0.2011 -1.23047,-0.57422 -0.17569,-0.75084 1.41237,-1.65004 2.13282,-1.20312 1.02701,0.63711 0.70375,1.62652 -0.60157,1.77734 z m 174.94532,-0.0547 c -0.0431,0.002 -0.0919,0.003 -0.13672,0 -1.25529,-0.0608 -3.16091,-1.10099 -3.69141,-2.10547 -1.23273,-2.33434 3.13525,-4.93207 5.19532,-3.08984 0.54589,0.48811 1.05089,1.14912 1.12109,1.44922 0.22421,0.95804 -1.21753,3.51129 -2.10547,3.71875 -0.10967,0.0257 -0.25384,0.0235 -0.38281,0.0273 z m -250.98827,-0.24609 c -0.068,0.007 -0.12667,10e-4 -0.19141,0 -0.97089,-0.0236 -1.54045,-0.99268 -1.03906,-1.99609 0.5451,-1.09105 1.62079,-1.32686 2.1875,-0.49219 0.69036,1.01664 0.34617,2.18024 -0.73828,2.43359 -0.0759,0.0181 -0.14612,0.0473 -0.21875,0.0547 z m 65.95311,-1.64063 c -0.26771,-0.003 -0.57168,-0.0852 -0.87499,-0.27343 -1.08437,-0.67271 -1.33135,-1.47942 -0.73828,-2.4336 0.65796,-1.05863 2.04283,-1.20446 2.59765,-0.27343 0.87231,1.46387 0.17559,2.99371 -0.98438,2.98046 z m 174.72657,-0.76562 c -0.48042,0.0262 -1.03337,-0.18508 -1.69532,-0.62891 -1.34754,-0.90355 -1.7902,-2.05901 -1.36718,-3.63672 0.32755,-1.22199 0.86463,-1.40455 3.17187,-0.98437 2.03375,0.37038 2.71306,2.08001 1.55859,3.9375 -0.53095,0.85431 -1.05027,1.27866 -1.66796,1.3125 z m 30.40625,-2.98047 c -0.46116,-0.70016 -0.54882,-1.55183 -0.13672,-2.21484 0.0385,-0.0623 0.0861,-0.10419 0.13672,-0.16407 z m -41.20704,-1.23047 c -0.084,0.004 -0.16393,0.005 -0.24609,0 -1.44626,-0.0933 -2.54966,-1.62527 -1.58594,-3.36328 0.75924,-1.36948 1.30538,-1.52408 2.92578,-0.875 1.62357,0.6504 1.91835,2.06807 0.6836,3.36328 -0.54993,0.57687 -1.18986,0.84539 -1.77735,0.875 z m -216.72655,-0.13672 c -0.68982,0.005 -1.44301,-0.27342 -1.77734,-0.76562 -0.85651,-1.26151 1.02326,-3.18607 2.32421,-2.37891 0.60697,0.37653 0.95441,2.3566 0.49219,2.81641 -0.23076,0.22959 -0.62525,0.32321 -1.03906,0.32812 z m 250.4414,-0.51953 c -0.0554,0.002 -0.13529,0.002 -0.19141,0 -1.15438,-0.0366 -2.40327,-0.78021 -2.70703,-2.07812 -0.45837,-1.95848 2.07226,-3.97464 3.71875,-2.95313 0.86942,0.53937 1.3309,2.32433 0.95703,3.71875 -0.23333,0.8705 -0.94689,1.28829 -1.77734,1.3125 z m -130.6211,-1.20312 c -0.48077,0.0191 -0.94854,-0.29678 -1.03906,-0.6836 -0.0905,-0.38674 0.18957,-0.84314 0.62891,-1.03906 0.56042,-0.25007 0.87074,-0.0629 1.03906,0.65625 0.16836,0.71925 -0.0156,1.04239 -0.62891,1.06641 z m 87.91016,-0.875 c -0.29991,0.005 -0.65741,-0.0673 -1.1211,-0.19141 -1.3391,-0.35831 -1.87839,-2.63529 -0.95703,-3.96484 0.8415,-1.21448 0.79767,-1.21313 2.32422,-0.60157 1.44191,0.57757 2.02907,2.36251 1.20313,3.69141 -0.42178,0.67861 -0.76808,0.98849 -1.3125,1.03906 -0.0408,0.004 -0.0939,0.0264 -0.13672,0.0274 z m -142.21485,-0.21875 c -0.0389,0.004 -0.0715,0 -0.10937,0 -0.26491,0 -0.51686,-0.11039 -0.62891,-0.32813 -0.1272,-0.24727 0.27482,-0.64225 0.875,-0.875 0.74828,-0.2902 1.05537,-0.19756 1.01172,0.27344 -0.046,0.49859 -0.62712,0.88211 -1.14844,0.92969 z m -75.46874,-0.32813 c -0.70848,0.0182 -1.14113,-0.34446 -1.44921,-1.20312 -0.39619,-1.10391 -0.27976,-1.33527 0.79296,-1.58594 0.68299,-0.15953 1.42445,0.0257 1.66797,0.38281 0.74707,1.10033 0.32542,2.27229 -0.875,2.37891 -0.0499,0.005 -0.0895,0.0253 -0.13672,0.0273 z m 249.59375,-0.46483 c -0.71898,0.004 -1.43923,-0.23775 -1.96875,-0.73828 -0.88043,-0.83211 -0.86345,-1.02646 0.16406,-2.67969 1.30504,-2.09985 1.73285,-2.29002 3.30859,-1.3125 1.48469,0.92117 1.8026,2.21622 0.875,3.55469 -0.53089,0.76615 -1.45461,1.17088 -2.3789,1.17578 z m -183.58594,-2.35156 c -0.0763,0.006 -0.14503,0 -0.21875,0 -0.51642,-7.9e-4 -0.95793,-0.15302 -1.01172,-0.38282 -0.0615,-0.26267 0.38518,-0.65285 0.95703,-0.875 0.7154,-0.27778 1.07708,-0.18311 1.20312,0.35547 0.12605,0.53859 -0.16509,0.83443 -0.92968,0.90235 z m 141.39453,-0.71094 c -0.0431,0.01 -0.0851,0 -0.13672,0 -0.36158,0.0101 -0.89941,-0.1729 -1.28516,-0.46485 -0.66418,-0.50278 -0.70325,-0.71073 -0.21875,-1.20312 0.79904,-0.812 1.05611,-0.84084 1.91407,-0.19141 0.83108,0.62912 0.68369,1.63581 -0.27344,1.85938 z m 31.99219,-0.0547 c -1.5509,-0.0224 -2.66693,-1.15743 -2.21485,-2.84375 0.3957,-1.47594 1.54397,-2.35636 2.81641,-2.1875 2.65525,0.35236 3.68273,3.03987 1.66797,4.32031 -0.77864,0.49479 -1.56467,0.72124 -2.26953,0.71094 z m -61.14063,-0.38281 c -1.32128,0.005 -2.39807,-1.52048 -1.55859,-2.8711 0.5962,-0.95923 1.89249,-1.19819 2.78906,-0.51953 0.97396,0.73721 0.80912,2.45689 -0.30078,3.11719 -0.31288,0.18608 -0.62479,0.27344 -0.92969,0.27344 z m -14.32812,-1.9961 c -0.0474,0.0104 -0.0896,0 -0.13672,0 -0.32885,0.006 -0.63029,-0.20211 -0.71094,-0.54687 -0.16836,-0.71926 0.7718,-1.23027 1.47656,-0.79297 0.55043,0.34143 0.16963,1.15329 -0.6289,1.33984 z m 66.00781,-0.32812 c -0.0469,0.002 -0.0901,0.002 -0.13672,0 -0.95764,-0.0357 -1.82857,-0.798 -2.16016,-2.21484 -0.19055,-0.8142 -0.15969,-1.79861 0.082,-2.1875 0.69918,-1.12495 2.50231,-1.29368 3.58204,-0.32813 1.30656,1.16833 1.52701,2.20069 0.68359,3.41797 -0.59271,0.85532 -1.34669,1.28624 -2.05078,1.3125 z m -217.16405,-0.19141 c -0.26148,0.0182 -0.47626,-0.18829 -0.73829,-0.57422 -0.51086,-0.75226 -0.15653,-2.68584 0.51954,-2.84375 0.23485,-0.0549 0.87286,0.17895 1.42187,0.51954 0.93777,0.58184 0.94919,0.70501 0.13672,1.75 -0.59674,0.76752 -1.00361,1.12488 -1.33984,1.14843 z m 250.68749,-0.1914 c -0.28234,0.0117 -0.61553,-0.0542 -1.09375,-0.19141 -0.90513,-0.25987 -1.58851,-0.89365 -1.88672,-1.72266 -0.91843,-2.55366 1.7025,-4.79772 3.85547,-3.30859 1.52398,1.05407 1.75611,3.05043 0.51953,4.34766 -0.59258,0.62152 -0.92401,0.85538 -1.39453,0.875 z m -66.25391,-0.0274 c -0.23301,-0.0163 -0.46613,-0.28417 -0.54688,-0.6289 -0.0921,-0.39395 0.0381,-0.75893 0.30079,-0.82032 0.26291,-0.0614 0.56399,0.20756 0.65625,0.60157 0.0921,0.39401 -0.0381,0.75891 -0.30079,0.82031 -0.033,0.007 -0.076,0.0273 -0.10937,0.0273 z m -9.78906,-1.9414 c -0.0516,0.005 -0.11057,-0.001 -0.16407,0 -0.0536,7.9e-4 -0.10748,0.008 -0.16406,0 -1.43741,-0.19765 -1.67505,-3.85616 -0.27344,-4.1836 0.15777,-0.0368 0.59506,0.14128 0.98438,0.38282 1.56019,0.96795 1.16518,3.67086 -0.38281,3.80078 z m 32.86718,-0.49219 c -0.59376,0.0101 -1.22975,-0.16818 -1.77734,-0.54688 -1.02746,-0.71076 -1.09104,-0.92083 -0.71094,-2.24218 0.45915,-1.59629 2.2681,-2.53508 3.44532,-1.80469 0.9336,0.5792 1.47552,2.71447 0.90234,3.63672 -0.3364,0.54123 -0.94982,0.85496 -1.61328,0.92969 -0.0829,0.009 -0.16127,0.0258 -0.2461,0.0273 z m 32.07423,-1.23047 c -1.21908,-0.0295 -2.0367,-1.17159 -1.58594,-2.89844 0.59023,-2.26096 1.66759,-2.83872 3.28125,-1.72265 1.43205,0.99052 1.50383,2.81606 0.13672,3.91015 -0.63457,0.50789 -1.27793,0.72417 -1.83203,0.71094 z m -249.45703,-0.30078 c -0.34159,0.009 -0.65753,-0.22946 -0.73828,-0.57422 -0.1745,-0.74569 0.36051,-1.07733 1.03906,-0.65625 0.67864,0.42094 0.58228,1.02872 -0.16406,1.20313 -0.0494,0.0103 -0.0876,0.0273 -0.13672,0.0273 z m 174.3164,-2.05078 c -0.0593,7.9e-4 -0.13014,0.009 -0.19141,0 -0.44901,-0.0617 -0.89014,-0.44546 -0.98437,-0.84766 -0.19528,-0.8346 1.46157,-1.41168 2.13281,-0.73828 0.58367,0.58561 -0.0661,1.57663 -0.95703,1.58594 z m 65.24219,-0.65625 c -1.38918,0.0316 -2.41591,-1.19529 -1.64063,-2.98047 0.79799,-1.83769 2.77509,-2.6113 3.77344,-1.47656 1.14402,1.30023 1.1485,2.21592 0.0547,3.36328 -0.65892,0.69124 -1.38834,1.01315 -2.05078,1.0664 -0.0454,0.004 -0.0919,0.0264 -0.13672,0.0273 z m -32.26563,-0.10938 c -0.33022,0.0144 -0.6737,-0.32296 -0.84766,-1.0664 -0.18014,-0.76961 0.007,-1.31771 0.54688,-1.5586 0.67355,-0.30049 0.85352,-0.11336 0.98437,1.01172 0.11559,0.9934 -0.25906,1.59464 -0.68359,1.61328 z m -216.78124,0 c -0.66607,-0.0103 -1.31589,-1.21077 -0.92969,-1.83203 0.19116,-0.30652 0.51654,-0.43827 0.73828,-0.30078 0.62819,0.38978 0.87806,1.97703 0.32813,2.10547 -0.044,0.0104 -0.0926,0.0273 -0.13672,0.0273 z m 173.27733,-1.91406 c -0.75845,0.0158 -0.96682,-0.26291 -1.14843,-1.03906 -0.34158,-1.45951 1.2129,-2.23286 2.65234,-1.33985 1.71242,1.06242 1.48514,1.96866 -0.54687,2.26954 -0.39595,0.0587 -0.70427,0.10395 -0.95704,0.10937 z m 66.44532,-0.79297 c -0.59651,-0.004 -1.20346,-0.27293 -1.75,-0.79297 -1.02944,-0.97968 -1.03194,-1.11288 -0.41016,-2.54297 0.81234,-1.86838 2.10533,-2.43067 3.44532,-1.5039 1.32805,0.91861 1.65509,2.36511 0.79296,3.60937 -0.56423,0.81426 -1.31113,1.23589 -2.07812,1.23047 z m -249.83984,-0.54687 c -0.017,0.004 -0.0367,0 -0.0547,0 -0.0179,-3.1e-4 -0.008,0.003 -0.0274,0 -0.30457,-0.0279 -0.62519,-0.24272 -0.68359,-0.49219 -0.0583,-0.24958 0.12216,-0.60554 0.38281,-0.76563 0.26053,-0.16016 0.55383,0.0817 0.65625,0.51954 0.0897,0.38308 -0.0392,0.68698 -0.27344,0.73828 z m 32.70313,-1.01172 c -0.0494,0.0102 -0.0881,0 -0.13672,0 -0.34163,0.009 -0.65763,-0.20211 -0.73828,-0.54688 -0.0922,-0.39397 0.17987,-0.78289 0.57422,-0.875 0.39432,-0.0921 0.78284,0.15287 0.875,0.54688 0.0922,0.39396 -0.17986,0.78294 -0.57422,0.875 z m 249.94921,-1.47656 c -0.033,0.008 -0.0496,-9.1e-4 -0.082,0 -0.22641,0.006 -0.43841,-0.153 -0.49219,-0.38282 -0.0615,-0.26263 0.0926,-0.51282 0.35547,-0.57422 0.26286,-0.0614 0.54012,0.0929 0.60156,0.35547 0.0615,0.26267 -0.11994,0.54017 -0.38281,0.60157 z m -75.76953,-0.6836 c -0.0484,0.0102 -0.0862,0 -0.13672,0 -0.35333,6e-5 -0.75807,-0.24486 -0.92969,-0.6289 -0.25025,-0.55991 -0.0363,-0.87087 0.68359,-1.03907 0.7199,-0.16823 1.04237,0.0164 1.06641,0.62891 0.0192,0.48038 -0.29643,0.94864 -0.68359,1.03906 z m 32.59375,-0.875 c -0.37667,-0.0155 -0.55799,-0.23546 -0.57422,-0.65625 -0.0353,-0.91871 0.65305,-1.54057 1.28515,-1.14844 0.83475,0.5179 0.68264,1.55398 -0.27343,1.77735 -0.16709,0.0393 -0.31201,0.0327 -0.4375,0.0273 z m -216.86328,-0.13672 c -0.0311,0.007 -0.0507,0.003 -0.082,0 -0.21944,-0.0197 -0.43888,-0.28419 -0.51953,-0.6289 -0.17285,-0.73848 0.32023,-1.06831 0.98438,-0.65625 0.47121,0.29229 0.21989,1.14434 -0.38282,1.28515 z m 97.89062,-2.26953 c -0.38248,-0.013 -0.66274,-0.24407 -0.76563,-0.68359 -0.19381,-0.82827 0.39222,-2.21322 0.98438,-2.35156 0.15777,-0.0367 0.59519,0.14136 0.98437,0.38281 0.98116,0.60871 1.11927,1.4687 0.30079,2.02344 -0.61242,0.41513 -1.12152,0.64162 -1.50391,0.6289 z m 142.51563,-0.68359 c -0.13907,0.006 -0.31336,0.0166 -0.46485,0 -2.06451,-0.23344 -2.84565,-1.30065 -2.05078,-2.73438 0.78836,-1.42183 2.01211,-1.79905 3.28125,-1.01172 1.96125,1.21681 1.32062,3.66959 -0.76562,3.7461 z m -10.22657,-2.625 c -0.0367,0.004 -0.0993,0 -0.13671,0 -0.56162,0.004 -1.1759,-0.33886 -1.88672,-1.03906 -1.483,-1.46092 1.08422,-4.10609 2.89843,-2.98047 1.07924,0.66953 1.23443,1.87605 0.35547,3.14453 -0.36561,0.52754 -0.7715,0.83234 -1.23047,0.875 z m -141.20312,-0.13672 c -0.039,0.002 -0.0684,10e-4 -0.10938,0 -0.28795,-0.0127 -0.62366,-0.13047 -0.95703,-0.38281 -0.80936,-0.6127 -0.55784,-1.22028 0.65625,-1.50391 0.55764,-0.13029 0.97881,0.13045 1.12109,0.73828 0.15928,0.68055 -0.18805,1.11559 -0.71093,1.14844 z m 65.32422,-2.26953 c -0.20835,-0.005 -0.39081,-0.1486 -0.46485,-0.46485 -0.0973,-0.4158 0.158,-0.83245 0.57422,-0.92968 0.41632,-0.0973 0.74188,0.074 0.71094,0.41015 -0.0551,0.59657 -0.47294,0.99322 -0.82031,0.98438 z m 65.76171,-1.42188 c -0.39991,0.0396 -0.78752,-0.25488 -1.03906,-0.90234 -0.58556,-1.50713 -0.0114,-2.24132 1.3125,-1.66797 0.87446,0.37867 1.02821,0.65832 0.76563,1.44922 -0.23086,0.69523 -0.63916,1.08135 -1.03907,1.12109 z m -118.37109,-2.95312 c -0.76869,0.0239 -0.99539,-0.25352 -1.23047,-1.25781 -0.40843,-1.74513 0.35001,-2.25553 1.91406,-1.28516 1.57314,0.97598 1.41586,2.31877 -0.30078,2.51562 -0.13265,0.0153 -0.273,0.0223 -0.38281,0.0273 z m 141.01172,-0.32813 c -0.92503,-0.0207 -1.49383,-0.84743 -1.23047,-2.16015 0.28597,-1.42551 1.53817,-2.0377 2.70703,-1.3125 1.20854,0.74981 1.20715,2.14929 -0.0273,2.98047 -0.51838,0.34908 -1.02881,0.50148 -1.44922,0.49218 z m -151.32031,-2.625 c -0.0471,0.002 -0.11749,10e-4 -0.16407,0 -0.32596,-0.006 -0.61288,-0.0927 -0.82031,-0.30078 -0.87665,-0.87953 0.89478,-2.77175 1.96875,-2.10547 0.21632,0.13413 0.46155,0.6395 0.57422,1.1211 0.15575,0.66556 -0.73012,1.23492 -1.55859,1.28515 z m 141.83203,-0.51953 c -0.30426,0.003 -0.59689,-0.0839 -0.90234,-0.27344 -0.99909,-0.61978 -1.22446,-1.96374 -0.41016,-2.51562 1.19468,-0.81003 1.97516,-0.80473 2.70703,0.0273 1.01435,1.15289 -0.0758,2.74747 -1.39453,2.76172 z m -75.90625,-1.80469 c -0.0553,0.005 -0.13611,0.002 -0.19141,0 -0.774,-0.0275 -1.22324,-0.76324 -0.65625,-1.33984 0.73567,-0.74829 1.14481,-0.8531 1.64063,-0.35547 0.54393,0.5457 0.19131,1.47636 -0.62891,1.66797 -0.0609,0.0153 -0.10872,0.0229 -0.16406,0.0273 z m -52.82813,-5.27734 c -0.2329,-0.0164 -0.49357,-0.28423 -0.57422,-0.62891 -0.0922,-0.39401 0.0654,-0.75891 0.32813,-0.82031 0.26286,-0.0613 0.56409,0.20761 0.65625,0.60156 0.0922,0.39396 -0.0654,0.7589 -0.32813,0.82032 -0.033,0.007 -0.0485,0.0273 -0.082,0.0273 z m 65.48828,-2.21484 c -0.0307,0.003 -0.0523,0.006 -0.082,0 -0.17831,-0.0351 -0.33664,-0.18581 -0.38281,-0.38282 -0.0615,-0.26262 0.21915,-0.53316 0.62891,-0.6289 0.40995,-0.0957 0.64788,0.0548 0.54687,0.35547 -0.10095,0.30058 -0.38154,0.57111 -0.6289,0.6289 -0.0307,0.007 -0.0511,0.0239 -0.082,0.0273 z m -8.12109,-1.83203 c -0.41597,0.007 -0.8738,-0.061 -1.47656,-0.19141 -3.07428,-0.66551 -5.49978,-2.65577 -6.04297,-4.97656 -0.83691,-3.5757 1.10085,-8.25731 3.60937,-8.77735 0.3437,-0.0712 1.77831,-0.0114 3.19922,0.13672 1.42086,0.14777 3.14892,0.48171 3.85547,0.76563 1.82609,0.7338 4.32813,2.96638 4.59375,4.10156 0.31793,1.35818 -3.55801,7.0297 -5.60547,8.20312 -0.87491,0.50143 -1.43951,0.72604 -2.13281,0.73829 z M 163.21317,290.75565 c -0.0593,0.004 -0.14352,-0.002 -0.21875,-0.0273 -0.30086,-0.10087 -0.57456,-0.26704 -0.60156,-0.38282 -0.0271,-0.11585 0.17453,-0.26673 0.4375,-0.32812 0.26285,-0.0614 0.53646,0.10475 0.60156,0.38281 0.0489,0.20868 -0.0407,0.34415 -0.21875,0.35547 z m 217.10937,-3.28125 c -0.18037,0 -0.47737,-0.2175 -1.01172,-0.62891 -0.65135,-0.50178 -1.20316,-1.07892 -1.25781,-1.3125 -0.16873,-0.72101 1.80002,-0.93741 2.26953,-0.24609 0.24351,0.35852 0.39965,1.05718 0.32813,1.55859 -0.0586,0.41144 -0.1478,0.62896 -0.32813,0.62891 z m -62.125,-26.44141 c -0.0793,0.008 -0.16911,0.001 -0.24609,0 -1.15475,-0.0211 -2.02945,-1.07317 -2.02344,-3.08984 0.009,-2.99307 2.70587,-5.40574 4.67578,-4.18359 1.13192,0.70229 1.54501,3.47044 0.71094,4.8125 -0.97148,1.56297 -2.13011,2.36411 -3.11719,2.46093 z m 24.28125,-4.94921 c -0.35965,0.0117 -0.61222,-0.22526 -0.62891,-0.65625 -0.0476,-1.2524 1.04011,-1.68333 1.3125,-0.51954 0.13728,0.5866 -0.1035,1.04484 -0.54687,1.14844 -0.0557,0.0128 -0.0853,0.0274 -0.13672,0.0274 z m 50.42188,-4.78516 c -0.0536,0.006 -0.10766,-0.002 -0.16407,0 -0.39508,0.0111 -0.85682,-0.0718 -1.36718,-0.30078 -0.94632,-0.42453 -1.01562,-0.58857 -0.49219,-1.14844 0.88125,-0.9424 2.24071,-1.13726 2.73437,-0.41016 0.67759,0.99786 0.23222,1.75305 -0.71093,1.85938 z m -170.37891,-3.99219 c -0.99967,-0.0115 -1.929,-0.84935 -1.96875,-1.85937 -0.0432,-1.0908 1.06714,-1.6494 2.05078,-1.03907 1.16148,0.72056 1.40155,2.62672 0.35547,2.8711 -0.14283,0.0334 -0.29468,0.0273 -0.4375,0.0273 z m 30.43359,-3.63672 c -1.3701,0.0566 -1.83801,-1.75614 -0.76562,-2.95312 0.974,-1.08723 1.74502,-1.40501 2.3789,-1.01172 1.34131,0.8321 0.0895,3.89456 -1.61328,3.96484 z m 142.57032,-2.51556 c -0.0385,0 -0.0697,0.004 -0.10938,0 -0.5287,-0.0515 -1.1463,-0.42576 -1.25781,-0.90235 -0.22306,-0.95319 1.16004,-1.25165 1.75,-0.38281 0.25034,0.36885 0.36287,0.82366 0.24609,1.01172 -0.12123,0.1951 -0.35784,0.27503 -0.6289,0.27344 z"
   id="path3086"
   style="fill:#000000;fill-opacity:1" />
</svg>