<?xml version="1.0" encoding="utf-8"?>
<!DOCTYPE svg PUBLIC "-//W3C//DTD SVG 1.1//EN" "http://www.w3.org/Graphics/SVG/1.1/DTD/svg11.dtd">
<svg version="1.1" id="twitter-bird" xmlns="http://www.w3.org/2000/svg" xmlns:xlink="http://www.w3.org/1999/xlink" x="0px" y="0px"
   width="400"
   height="400" viewBox="50 50 350 350" enable-background="new 0 0 400 400" xml:space="preserve">
<path
     style="fill:#030202"
     d="m -2.0922558,-1.5624654 1.99999997,402.9820854 402.71061583,0 0,-402.9820854 z m -0.062999,0.048584 85.2040958,0 c -0.223063,1.09835509 -1.030949,2.22289109 -2.457305,3.6463008 -0.850307,0.8486723 -1.036312,1.6250983 -0.87241,3.4477507 0.392947,4.3689193 -1.130532,6.0597979 -4.187612,4.6438349 -2.208943,-1.023031 -3.334114,-0.4686456 -4.861257,2.377598 -1.218707,2.271459 -1.869968,4.36371 -2.762677,8.963205 -0.163915,0.84491 -1.396056,2.305352 -3.436312,4.048218 l -3.189178,2.726252 -1.977487,-0.886156 c -2.953507,-1.32439 -3.763868,-0.902262 -5.496192,2.910265 -0.833471,1.834298 -2.361532,4.526114 -3.402429,5.975471 -1.167996,1.626358 -1.973589,3.410129 -2.103484,4.658355 -0.288171,2.769581 -1.003576,3.387536 -3.848325,3.297646 -2.829341,-0.0895 -6.380372,0.685772 -7.468817,1.641562 -0.444062,0.38999 -1.050665,1.656831 -1.337689,2.818258 -0.889683,3.600809 -4.05291,4.039388 -5.612515,0.779613 -0.853599,-1.784112 -1.50917,-1.969215 -5.13755,-1.544704 -1.748004,0.204503 -4.09115,0.257456 -5.200595,0.13558 -2.48551,-0.272971 -6.329067,0.582325 -6.921134,1.535039 -0.241769,0.388859 -0.283357,1.371545 -0.09211,2.188734 0.195553,0.835254 0.02751,2.044662 -0.382851,2.760145 -1.687665,2.94271 -5.5371827,1.452013 -5.7676273,-2.237165 l -0.1211829,-1.94662 -1.7787709,0.706977 c -0.7105913,0.281647 -2.676936,0.97757 -4.78858134,1.714195 z m 90.7730048,0 3.034067,0 c 0.0056,0.00497 0.0142,0.00964 0.0192,0.014457 1.738427,1.55465607 2.472815,6.9666454 0.979007,7.205445 -0.147042,0.023039 -1.029029,-0.093809 -1.948375,-0.2614979 -2.04938,-0.3738403 -3.848412,-2.000369 -3.741672,-3.3702815 0.124852,-1.60403262 0.794533,-2.88212523 1.657582,-3.5881865 z m 22.24172,0 4.34269,0 c -0.42586,0.63690858 -0.91381,1.17044625 -1.24562,1.23964527 -0.16282,0.0328518 -0.88909,-0.0845438 -1.62366,-0.26148274 -0.63917,-0.15400731 -1.14117,-0.50731033 -1.47341,-0.97816253 z m 9.9552,0 4.75466,0 c 0.12993,0.1817428 0.23259,0.3650252 0.27629,0.55202278 0.15185,0.64898835 -1.58102,3.83508572 -2.16168,3.97074762 -0.13689,0.031869 -0.83709,-0.3391861 -1.55094,-0.8135207 -1.57711,-1.0479361 -1.97087,-2.58524219 -1.31833,-3.7092497 z m 24.35973,0 2.6851,0 c -0.24035,0.2850829 -0.50418,0.5009357 -0.78514,0.56655878 -0.47015,0.10985467 -1.28167,-0.10934108 -1.79331,-0.47455228 -0.0403,-0.02884 -0.0674,-0.062576 -0.10665,-0.092007 z m 8.86474,0 4.42022,0 c 0.0381,0.54271015 -0.0952,1.13813953 -0.49441,1.71419749 -0.93329,1.34699631 -2.03979,1.52323581 -3.17459,0.50844504 -0.69844,-0.62456421 -0.94696,-1.45116041 -0.75122,-2.22264253 z m 32.70582,0 4.06644,0 c -0.1072,0.2439771 -0.26236,0.4932246 -0.47983,0.73603557 -1.05741,1.18030268 -1.11715,1.19908296 -2.37493,0.81352103 -0.88262,-0.27057807 -1.24213,-0.89464476 -1.21168,-1.5495566 z m 43.65463,0 3.56237,0 c 0.10416,0.4227973 0.11503,0.95406486 0.0289,1.59313421 -0.21196,1.57534909 -1.97652,2.27918669 -3.26675,1.30259409 -0.92637,-0.70120994 -0.96167,-1.96827965 -0.32472,-2.8957283 z M 133.4065,0.29232273 c 1.22173,0.0130588 2.54411,0.97604807 2.82568,2.17906457 0.27198,1.1620509 0.10394,1.3716697 -1.76423,2.2516841 -0.84856,0.3998032 -1.64045,0.4622865 -2.08894,0.1840128 -1.6123,-1.0002698 -1.24967,-4.15208645 0.52345,-4.56634836 0.16755,-0.0392257 0.32949,-0.0484137 0.50404,-0.0484131 z m 107.38937,0.5471877 c 0.29492,0.0200246 0.96241,0.24867237 1.59941,0.55687337 1.13475,0.5489754 1.25708,0.7747313 0.86273,1.5640773 -0.62014,1.2409664 -2.06777,1.519893 -2.67057,0.5084446 -0.53975,-0.9057607 -0.48055,-2.4872968 0.10664,-2.62456049 0.0257,-0.00603 0.0597,-0.007775 0.10179,-0.004835 z m -140.36661,0.0823206 c 1.77757,-0.024761 3.53342,2.72272307 2.55909,4.29032917 -0.53245,0.8567267 -3.000731,1.475927 -4.308756,1.0750043 -2.114246,-0.6481019 -1.036353,-4.7486663 1.395846,-5.3169206 0.11783,-0.0274585 0.23534,-0.0484113 0.35382,-0.0484129 z M 208.44867,1.3818469 c 1.25047,-0.00979 2.82786,0.8463875 3.03891,1.7480901 0.21747,0.9290191 -1.10173,2.7885488 -2.16166,3.0361644 -0.32976,0.077052 -1.07827,-0.3258321 -1.67213,-0.8909914 -0.86469,-0.822834 -1.03745,-1.2886494 -0.82879,-2.329185 0.14343,-0.7146433 0.64664,-1.3906368 1.11963,-1.5011283 0.0801,-0.018628 0.17643,-0.039105 0.2617,-0.048411 0.08,-0.00855 0.15902,-0.013836 0.24234,-0.014455 z M 143.53135,3.037931 c 0.11531,0 0.2332,0.00532 0.35382,0.014455 1.22335,0.095085 2.39927,2.0165688 1.97749,3.2346974 -0.6148,1.7754836 -1.76524,2.5063885 -3.31031,2.0967435 -3.57693,-0.9482346 -2.59615,-5.345977 0.979,-5.345977 z M 251.5702,4.1565284 c 1.22457,-0.00373 2.0507,0.9997256 1.51701,2.0676871 -0.56237,1.1254688 -1.42861,1.356806 -2.38947,0.6295078 -1.15359,-0.8732057 -0.98074,-2.315908 0.31991,-2.6197249 0.18844,-0.043794 0.37758,-0.077472 0.55255,-0.07747 z M 109.96767,4.2872619 c 2.51234,0.033068 4.30417,3.0352932 2.22462,4.4356156 -1.58528,1.0674014 -2.19797,1.1362577 -3.3297,0.3534888 -1.96007,-1.3556865 -1.76259,-4.2190944 0.32475,-4.7067838 0.18061,-0.042318 0.36209,-0.066199 0.53796,-0.077472 0.0825,-0.00532 0.16131,-0.00587 0.24237,-0.00485 z m 108.91607,0.21307 c 0.8894,0 1.19289,0.6615963 1.26982,2.3969695 0.0882,1.9886313 -0.95493,2.58047 -2.57844,1.4575503 -1.80798,-1.2505441 -1.46777,-3.2772807 0.63007,-3.7673645 0.17684,-0.041295 0.34187,-0.064239 0.48954,-0.077472 0.0645,-0.00579 0.12973,-0.00964 0.18901,-0.00964 z m -65.28083,2.1838995 c 0.0806,-0.00309 0.16071,-0.00341 0.23747,0 1.35107,0.059003 2.06589,1.1112129 1.47345,2.7311028 -0.55923,1.5288958 -2.19863,2.2509848 -3.40728,1.5011278 -0.38924,-0.241489 -0.84206,-1.0467083 -1.01299,-1.7771467 -0.23567,-1.0067532 -0.0404,-1.4636131 0.78519,-1.8885251 0.70899,-0.3648387 1.3603,-0.545026 1.92416,-0.5665588 z m -33.99993,0.1549558 c 1.21265,0.031386 2.8358,1.3344975 3.11159,2.513183 0.17979,0.7678128 -1.13263,2.7018278 -1.9629,2.8957438 -0.20436,0.04756 -0.89734,-0.241645 -1.54613,-0.644045 -2.20151,-1.365932 -1.91426,-4.8251111 0.39744,-4.7648818 z M 87.449667,7.972305 c 1.806093,-0.05552 2.934841,2.670082 1.735158,4.600241 -0.915617,1.473191 -1.207466,1.534382 -3.053449,0.673086 -0.820041,-0.38253 -1.572637,-1.091422 -1.686668,-1.578598 -0.238423,-1.018677 1.458194,-3.3564601 2.636638,-3.6317793 0.125907,-0.029434 0.247919,-0.058035 0.368321,-0.06295 z m 75.042203,2.096743 c 0.0568,-0.0021 0.11802,0.0015 0.18413,0.0048 0.3966,0.02241 0.95846,0.161952 1.41041,0.368026 1.08441,0.494452 1.07721,0.500033 0.32476,1.423658 -0.41815,0.51317 -1.04356,1.007235 -1.39587,1.089524 -0.35241,0.08229 -0.847,-0.14984 -1.09051,-0.508445 -0.59941,-0.882721 -0.37368,-2.174665 0.41196,-2.358227 0.044,-0.01026 0.0983,-0.01722 0.15512,-0.01937 z m -32.36662,0.41644 c 1.73665,-0.0047 3.48433,1.572891 2.88382,3.326703 -0.33415,0.976001 -2.93035,2.149417 -3.49935,1.578614 -0.18226,-0.182832 -0.66602,-1.091407 -1.07112,-2.009589 -0.59977,-1.36004 -0.59037,-1.785325 0.0436,-2.314649 0.48959,-0.40882 1.06423,-0.581079 1.64305,-0.581079 z m 107.89342,0.06295 c 0.0357,-0.0018 0.073,1.54e-4 0.1115,0 0.5388,-0.0018 1.31852,0.345436 1.85631,0.857099 1.08202,1.0297 1.08519,1.092991 0.21806,2.208122 -1.16606,1.499775 -2.01279,1.661135 -2.97588,0.566558 -1.03517,-1.17654 -0.62416,-3.310689 0.68822,-3.617243 0.033,-0.0076 0.0659,-0.01275 0.10179,-0.01445 z M 97.177082,11.449116 c 1.797152,0.01213 3.120898,3.507855 1.424936,4.997323 -0.627458,0.550997 -1.087381,0.510559 -2.253735,-0.213069 -2.336713,-1.449544 -2.335023,-3.177438 0.02888,-4.551812 0.268634,-0.156153 0.542965,-0.232442 0.799682,-0.232442 z m 75.531708,1.031426 c 1.15497,-0.0047 2.91374,0.686564 5.59797,2.174229 3.25337,1.803049 3.87024,2.824135 4.18762,6.958468 0.52283,6.815156 -0.44805,8.04653 -7.66759,9.733149 l -4.74011,1.099209 -0.89179,1.980531 c -1.00761,2.242823 -2.76016,2.993597 -3.91132,1.685141 -0.58583,-0.665841 -0.52206,-1.179136 0.33924,-2.789201 1.24237,-2.322453 1.03251,-3.646985 -1.02751,-6.469395 -1.76817,-2.422652 -2.86739,-3.0213 -4.711,-2.590667 -1.00852,0.235659 -1.46501,0.0505 -1.88537,-0.765093 -1.59459,-3.09336 -0.25566,-4.586699 3.45085,-3.859354 1.92389,0.377478 2.048,0.341658 3.13099,-0.876471 1.30464,-1.467546 5.72764,-5.211823 7.1635,-6.052956 0.26199,-0.153493 0.5796,-0.22759 0.96452,-0.22759 z m 32.79792,0.305076 c 0.071,-0.0084 0.14649,0.0015 0.22779,0.02905 0.66446,0.222895 0.94987,1.520234 0.36836,1.656083 -0.24737,0.05777 -0.61944,-0.08036 -0.84333,-0.305076 -0.47011,-0.471693 -0.25058,-1.322106 0.24718,-1.380057 z m -65.28567,0.150105 c 0.93269,0.02306 1.82998,0.43525 2.31192,1.167011 1.33286,2.023595 -1.92596,4.600209 -4.45901,3.525237 -1.34036,-0.568783 -1.28904,-2.967712 0.0872,-4.028848 0.59344,-0.457419 1.33443,-0.681046 2.05988,-0.6634 z m -33.03057,0.634359 c 0.46272,-0.0021 0.95401,0.156495 1.45887,0.469703 2.37817,1.475397 1.9442,5.11837 -0.68822,5.733357 -1.1956,0.2793 -1.62723,0.07627 -2.57849,-1.239645 -1.05997,-1.466364 -1.09239,-1.682684 -0.50404,-3.036163 0.50688,-1.166031 1.24883,-1.824783 2.11316,-1.917565 0.0647,-0.007 0.1326,-0.0093 0.19872,-0.0096 z m 141.72369,0.561708 c 1.7344,0.0047 2.89065,1.437526 2.01138,2.852151 -0.5918,0.952309 -3.03984,1.484649 -3.52843,0.765093 -0.6127,-0.902341 -0.10702,-3.328134 0.73673,-3.525237 0.26657,-0.06203 0.5326,-0.09201 0.78032,-0.09201 z M 73.907854,14.698347 c 1.182439,-0.0234 2.548552,1.210496 3.324897,3.389653 1.477808,4.147967 0.447637,6.083055 -2.253737,4.227381 -2.710819,-1.862142 -3.687114,-4.000676 -2.820816,-6.159483 0.394041,-0.981832 1.040211,-1.443324 1.749656,-1.457551 z m 75.662556,0.968478 c 0.0367,-0.0018 0.0737,-0.0021 0.11146,0 0.36222,0.02133 0.79423,0.225865 1.36681,0.581079 1.56501,0.970949 1.93788,2.824711 0.82879,4.062739 -1.23181,1.374965 -2.36222,1.531927 -3.52842,0.489073 -1.36158,-1.217631 -1.43031,-1.917411 -0.3829,-3.602707 0.63851,-1.027228 1.05677,-1.503397 1.60426,-1.530184 z m 66.31804,0.411587 c 0.23668,-0.0143 0.50518,0.179924 0.69308,0.600467 0.22316,0.499195 0.061,0.863146 -0.43137,0.978147 -0.45922,0.107304 -0.78839,-0.141913 -0.79972,-0.595601 -0.0152,-0.611909 0.23371,-0.964373 0.53801,-0.983013 z m -98.9415,1.181547 c 0.41581,0.0015 0.86066,0.163584 1.35227,0.503609 1.16936,0.808904 1.61852,2.285296 0.99843,3.283111 -0.53231,0.85643 -2.53689,1.362698 -3.83864,0.963641 -1.31339,-0.402648 -1.50166,-1.750515 -0.47496,-3.292811 0.65864,-0.98948 1.26986,-1.45755 1.9629,-1.45755 z m -32.599207,0.503609 c 0.04173,-0.0015 0.08308,-0.0032 0.126042,0 0.687342,0.0489 1.529335,0.6102 2.733564,1.689976 0.879638,0.788801 1.847729,1.202021 2.48151,1.055632 3.62788,-0.837929 7.405412,0.547732 8.913159,3.263755 l 0.964521,1.733569 2.811141,-0.813521 c 2.55102,-0.744555 3.26735,-0.715187 7.74507,0.353489 5.10283,1.217879 6.60119,2.084727 9.4657,5.515454 1.49211,1.787019 1.52722,1.814631 2.48151,0.813521 2.63187,-2.760704 5.86071,-0.37925 3.76108,2.774665 -1.03467,1.554408 -1.36268,1.656768 -2.72871,0.900692 -1.27051,-0.703122 -1.99908,0.03986 -2.39427,2.440547 -0.24543,1.491332 -0.14855,1.660732 1.56548,2.619709 2.19991,1.230582 2.34228,1.637102 1.17776,3.510718 -0.88138,1.41806 -1.49779,1.766776 -2.80628,1.564074 -0.35964,-0.0557 -0.77597,-0.61074 -0.92086,-1.229956 -0.14498,-0.619248 -0.54324,-1.21634 -0.88698,-1.331636 -0.34365,-0.11525 -3.23539,0.367308 -6.42677,1.075002 -8.19211,1.816728 -9.48808,1.355935 -13.071671,-4.643832 -2.406458,-4.028987 -2.779817,-4.248463 -5.093943,-3.007108 -2.214162,1.18772 -3.084589,1.045014 -6.91626,-1.133102 -1.457052,-0.828244 -3.563236,-1.58407 -4.677124,-1.67062 -2.092674,-0.162682 -3.449521,-0.899915 -3.712609,-2.024109 -0.249237,-1.064867 1.5558,-3.523635 2.806234,-3.815776 1.424119,-0.332719 1.562815,-1.160263 0.780333,-4.5034 -0.456536,-1.950727 -0.426102,-2.883805 0.126042,-3.772198 0.554738,-0.892515 1.067809,-1.351817 1.696331,-1.365545 z m 42.520527,3.399339 c 0.0799,-0.0015 0.16534,0.0015 0.25203,0.0048 1.07859,0.04605 2.69056,0.506687 5.03091,1.351007 1.78464,0.643733 3.89587,1.120975 4.70619,1.070169 1.16135,-0.07283 1.6524,0.232067 2.31673,1.423657 0.77066,1.382256 0.75695,1.639076 -0.29078,2.944158 -2.54406,3.169073 -2.8491,3.839236 -2.46698,5.47186 0.24717,1.056332 0.063,2.153863 -0.50895,3.157227 -0.89789,1.573669 -1.62045,1.982908 -2.77716,1.578613 -0.41083,-0.143559 -0.89895,-1.386687 -1.3183,-3.326703 -0.36883,-1.707186 -1.08734,-3.91579 -1.59459,-4.905317 -1.10568,-2.156599 -3.10729,-4.560596 -3.68354,-4.425929 -0.64603,0.150913 -1.35396,-1.159564 -1.33286,-2.469605 0.0198,-1.232462 0.46863,-1.850528 1.6673,-1.873988 z m 109.17781,0.09684 c 0.70592,-0.03291 1.20628,0.605643 0.90634,1.472069 -0.36828,1.063594 -1.02032,1.552309 -1.5946,1.196068 -0.75571,-0.468847 -0.79216,-1.897931 -0.063,-2.392118 0.2581,-0.174996 0.51591,-0.26523 0.75125,-0.276019 z m 9.72736,3.113633 c 0.69929,-0.01057 1.1023,0.557791 0.97911,1.452714 -0.11326,0.821948 -1.4342,1.425306 -2.14714,0.982998 -0.57208,-0.354919 0.0852,-2.215087 0.84333,-2.392135 0.11114,-0.02598 0.22484,-0.04358 0.3247,-0.04358 z M 71.431194,24.852786 c 1.39225,0.03597 3.265427,1.164492 3.518705,2.246848 0.198716,0.849077 -1.875424,3.856898 -2.762632,4.014326 -0.312333,0.05531 -1.079183,0.01874 -1.701191,-0.07748 -2.912378,-0.450548 -2.589819,-5.432558 0.397433,-6.130426 0.08684,-0.0206 0.182484,-0.03524 0.276249,-0.04358 0.08794,-0.0076 0.178588,-0.01213 0.271436,-0.0096 z m 75.531656,2.101578 c 0.88835,-0.0036 1.66158,0.503206 1.86116,1.355858 0.44145,1.886178 -1.83617,3.222897 -3.08253,1.806205 -1.15483,-1.312623 -1.12709,-2.241936 0.0776,-2.861837 0.32036,-0.164875 0.64389,-0.269396 0.96451,-0.295391 0.0601,-0.0048 0.12014,-0.0047 0.17932,-0.0048 z m 10.0861,2.721402 c 1.16529,-0.02819 2.32984,0.658208 2.57364,1.699677 0.43883,1.875138 -2.59656,3.9455 -4.26515,2.910265 -0.79092,-0.490784 -1.26424,-2.071077 -0.92091,-3.0507 0.12389,-0.353256 0.78546,-0.929189 1.47345,-1.283223 0.35222,-0.181261 0.75053,-0.266691 1.13897,-0.276019 z m 32.69614,0.71668 c 0.034,-0.0033 0.0655,-0.0055 0.0969,0 0.18844,0.03271 0.35129,0.171062 0.39743,0.368009 0.0614,0.26268 -0.10061,0.53901 -0.36352,0.600451 -0.26286,0.06141 -0.53952,-0.105345 -0.601,-0.368009 -0.0614,-0.262618 0.10555,-0.524521 0.36837,-0.58593 0.033,-0.0076 0.068,-0.01135 0.10178,-0.01446 z M 58.059029,32.096958 c 0.917606,-0.01213 1.695186,0.394657 2.82563,1.438178 1.953415,1.80325 3.868041,2.314913 6.499493,1.733569 1.361347,-0.300878 2.047545,-0.158018 2.854744,0.610137 1.518478,1.444988 1.319395,3.239175 -0.581613,5.166799 -1.834067,1.859545 -2.309308,3.153809 -1.856305,5.089314 0.468043,1.999761 -0.411508,3.762529 -2.069554,4.149911 -1.135625,0.265213 -1.510728,0.0916 -1.996881,-0.92005 -2.209857,-4.598916 -3.506877,-5.216205 -5.937275,-2.832778 -1.079688,1.058817 -1.580651,1.271407 -2.466986,1.04111 -1.487345,-0.386557 -2.008161,-0.916547 -2.379734,-2.464768 -0.327509,-1.364904 0.57116,-2.554459 2.239202,-2.944156 0.513939,-0.120005 1.328426,-0.728125 1.812654,-1.351022 0.847959,-1.09055 0.832508,-1.232559 -0.402246,-3.965898 -1.523246,-3.372008 -1.280469,-4.412669 1.06144,-4.72129 0.13833,-0.01816 0.266298,-0.02905 0.397431,-0.02906 z m 141.801241,0.460016 c 0.51095,0.03177 0.75647,1.207354 0.29078,1.67062 -0.20935,0.208187 -0.57213,0.179768 -0.79967,-0.04843 -0.48593,-0.487534 -0.22871,-1.45685 0.41678,-1.607655 0.0362,-0.0084 0.0577,-0.01446 0.0921,-0.01446 z m -23.18203,2.953842 c 0.0307,-0.0015 0.0652,-0.0015 0.0969,0 0.39394,0.01869 0.8711,0.272973 1.54611,0.721515 1.72472,1.145929 1.91886,2.329138 0.55255,3.249216 -1.3723,0.924062 -1.08069,0.89143 -2.54456,0.30508 -1.50124,-0.601371 -1.87694,-1.862921 -0.94994,-3.200807 0.48299,-0.697059 0.83861,-1.053269 1.2989,-1.075004 z m -32.43923,1.796518 c 1.29867,0.01276 1.85914,1.198446 0.88693,2.329169 -0.90546,1.053099 -1.18959,1.114246 -2.09863,0.42614 -1.27579,-0.965598 -0.96909,-2.328157 0.61069,-2.697194 0.21284,-0.04954 0.4155,-0.05811 0.60101,-0.05812 z m -66.085398,0.736037 c 0.698079,0.01524 1.549519,0.303321 2.578485,0.871633 1.272459,0.702783 2.797081,1.164245 3.387854,1.026576 0.590837,-0.137667 1.826649,0.142599 2.733572,0.614973 0.906914,0.47244 2.054869,0.895346 2.559086,0.934585 1.340267,0.104164 1.938704,1.271128 1.395882,2.755309 -0.81674,2.233152 -2.490698,2.139837 -5.384728,-0.319596 -2.620858,-2.227277 -3.689777,-2.430848 -5.321734,-0.997533 -1.923434,1.689228 -4.503756,0.0095 -4.066434,-2.648771 0.248962,-1.512521 0.954607,-2.262673 2.118017,-2.237176 z m 108.896708,0.04358 c 1.32091,-0.06032 2.5281,1.683694 2.19555,3.341241 -0.32811,1.634879 -2.69528,2.209069 -4.06639,0.982994 -0.54589,-0.48817 -1.0591,-1.151494 -1.13416,-1.472086 -0.19477,-0.832283 1.4464,-2.520101 2.74324,-2.823092 0.0887,-0.0206 0.17368,-0.02415 0.26176,-0.02906 z m -32.61379,1.104062 c 0.3453,0.009 0.73985,0.2612 1.45891,0.779628 1.35966,0.980216 1.46823,1.209482 1.07593,2.271072 -0.58248,1.576607 -2.41353,2.180384 -4.10999,1.346171 -1.61353,-0.793264 -1.48235,-1.976565 0.39738,-3.675358 0.5371,-0.485278 0.83252,-0.730826 1.17777,-0.721513 z m 42.15702,2.285606 c 1.0178,-0.01879 2.08786,0.445947 2.40885,1.268689 0.48679,1.248239 -0.43971,3.197119 -1.65759,3.481659 -0.4663,0.108918 -1.28538,-0.05542 -1.8127,-0.382549 -1.17675,-0.730096 -1.47046,-2.828955 -0.53314,-3.772201 0.39169,-0.394203 0.98386,-0.584327 1.59458,-0.595598 z m -32.62828,0.518129 c 0.81605,-0.01976 1.67643,0.341239 2.16163,1.104062 0.86671,1.362746 0.67781,2.440597 -0.64461,3.844833 -0.67663,0.718514 -0.99433,0.781201 -2.02596,0.368009 -1.38963,-0.55662 -2.07167,-2.55088 -1.41036,-4.106317 0.33265,-0.782517 1.10317,-1.19098 1.9193,-1.210587 z m 66.129,0.121051 c 0.0492,-0.0013 0.0941,0.0018 0.13567,0.0048 0.24934,0.01849 0.38598,0.157052 0.31023,0.382544 -0.101,0.300584 -0.2679,0.572078 -0.36836,0.595617 -0.10047,0.02352 -0.35768,-0.14331 -0.58162,-0.368022 -0.22393,-0.224655 -0.0763,-0.496292 0.34897,-0.595604 0.0532,-0.0123 0.10592,-0.01784 0.15511,-0.0194 z m -98.86393,0.857097 c 0.19799,0.0052 0.39208,0.0409 0.58162,0.111381 1.8982,0.706166 2.46314,2.170916 1.45887,3.786733 -0.94915,1.526937 -1.48152,1.776259 -3.25217,1.501128 -1.46062,-0.226969 -2.01088,-1.1475 -1.64306,-2.697198 0.35653,-1.502759 1.50982,-2.603337 2.65603,-2.697193 0.0661,-0.0055 0.13269,-0.0065 0.19871,-0.0048 z m -32.81731,1.200917 c 0.05411,-0.0052 0.1077,-0.0023 0.159927,0 1.566753,0.0375 2.784173,2.993488 1.517063,4.106316 -0.988363,0.867859 -1.314461,0.953756 -2.530043,0.581083 -1.935078,-0.593224 -1.408988,-4.168368 0.688263,-4.658357 0.05339,-0.0123 0.110635,-0.02389 0.16479,-0.02902 z m 141.40861,0.716666 c 0.34163,-0.009 0.65121,0.221838 0.73187,0.566557 0.17451,0.74574 -0.34892,1.084428 -1.02751,0.663401 -0.67855,-0.421021 -0.60582,-1.036198 0.14058,-1.210585 0.0493,-0.01027 0.10651,-0.0194 0.15506,-0.0194 z m -32.82699,0.125897 c 0.47914,-0.0063 0.96588,0.223672 1.34741,0.779628 0.79225,1.154607 0.048,2.38391 -1.68666,2.789187 -0.83297,0.194553 -1.15823,-0.01384 -1.35227,-0.842563 -0.35818,-1.530462 0.63746,-2.712525 1.69152,-2.726252 z m -33.32136,0.242127 c 0.46776,-0.01723 0.96824,0.08047 1.26016,0.261486 1.12136,0.695721 1.43526,2.98164 0.51856,3.786715 -0.98825,0.867904 -1.32893,0.953819 -2.54451,0.581096 -1.09143,-0.334677 -1.7929,-2.571961 -1.13416,-3.631777 0.24168,-0.388904 0.90688,-0.80564 1.45887,-0.934571 0.13798,-0.03237 0.28519,-0.05707 0.44108,-0.06295 z m -32.764,1.147638 c 0.25439,0.0033 0.56507,0.08904 1.01298,0.217904 2.00092,0.575659 2.46319,2.03669 1.16319,3.660825 -1.252,1.564062 -1.9636,1.795909 -3.20367,1.026574 -1.33517,-0.828367 -1.45818,-2.038164 -0.36836,-3.67534 0.55764,-0.837698 0.83287,-1.184424 1.28922,-1.225125 0.0343,-0.0033 0.0703,-0.0053 0.10664,-0.0048 z m 141.73824,0.556858 c 0.34159,-0.009 0.65603,0.22184 0.73668,0.566562 0.0923,0.394016 -0.15823,0.794053 -0.55255,0.886153 -0.39431,0.0921 -0.78022,-0.158019 -0.87238,-0.552022 -0.0922,-0.393956 0.13882,-0.779537 0.53314,-0.871636 0.0494,-0.01119 0.10652,-0.02907 0.15511,-0.02907 z m -174.91906,0.1356 c 0.27915,0.005 0.60712,0.06449 1.01298,0.183997 2.42539,0.714113 2.94525,1.601127 1.96291,3.297662 -1.02379,1.767977 -2.0824,2.109834 -3.4945,1.133103 -1.27355,-0.880853 -1.61985,-3.129724 -0.63008,-4.125689 0.33925,-0.34144 0.68349,-0.497423 1.14869,-0.489073 z m 109.34256,0.736038 c 0.56814,-0.04679 1.06167,0.566108 0.9839,1.564075 -0.1065,1.36839 -1.85845,1.864117 -2.15194,0.610138 -0.1154,-0.493067 0.061,-1.239628 0.38776,-1.670605 0.24658,-0.325254 0.5221,-0.482526 0.78028,-0.503608 z m -32.47802,0.06295 c 0.0796,-0.0041 0.1563,-0.0037 0.23264,0 0.28185,0.0132 0.54278,0.08378 0.75122,0.213067 0.77015,0.477867 0.81936,0.731889 0.44594,2.20811 -0.49895,1.972696 -1.75993,2.460696 -3.46543,1.31713 -0.88395,-0.592678 -1.12467,-1.056707 -0.93543,-1.762627 0.27491,-1.025345 1.77762,-1.915717 2.97106,-1.97568 z M 75.759348,48.386655 c 1.154053,-0.03095 2.262534,0.497299 2.500916,1.515662 0.233832,0.999339 -1.485328,3.344863 -2.651169,3.617243 -0.43783,0.102256 -1.113208,-0.02013 -1.502525,-0.261481 -0.989224,-0.613773 -1.415818,-2.838096 -0.722145,-3.752829 0.554929,-0.731772 1.477304,-1.09456 2.374923,-1.118595 z M 42.73359,48.953211 c 1.154925,-0.0041 2.204352,0.756996 2.500914,2.024112 0.552819,2.362127 -1.734113,4.365204 -3.833743,3.355758 -2.024438,-0.973356 -2.158045,-3.584735 -0.247181,-4.871424 0.502936,-0.338579 1.055067,-0.508446 1.58001,-0.508446 z m 107.79162,0.198537 c 0.79,-0.05542 1.73575,0.604242 2.39431,1.980531 1.14131,2.385525 -0.74782,4.145185 -2.86928,2.677822 -0.80725,-0.558303 -1.01096,-1.088157 -0.97904,-2.421177 0.034,-1.424929 0.664,-2.181705 1.45401,-2.237176 z m -32.21146,0.828043 c 1.01775,0.01086 1.98116,0.758779 2.3022,2.13065 0.50285,2.148311 -2.17052,3.868792 -4.12943,2.653602 -1.29922,-0.806106 -1.40642,-1.748463 -0.36832,-3.418696 0.57479,-0.92485 1.40394,-1.373892 2.19555,-1.365556 z m 75.28934,1.259013 c 0.2305,-0.0063 0.51915,0.140995 1.00816,0.411604 0.64113,0.354875 1.31192,1.257414 1.48794,2.009587 0.25627,1.094874 0.10358,1.402315 -0.76579,1.593136 -0.59339,0.130064 -1.5033,0.09728 -2.02596,-0.06295 -1.26364,-0.387401 -1.52549,-1.752866 -0.59614,-3.094277 0.36369,-0.524756 0.55235,-0.784791 0.79972,-0.842563 0.0307,-0.0071 0.0591,-0.01366 0.0921,-0.01444 z m -108.455625,0.09686 c 1.591202,-0.03811 3.273768,1.440027 2.840216,2.692341 -0.600286,1.733662 -1.765068,2.5606 -3.145543,2.222646 -2.861614,-0.700574 -2.986823,-4.189045 -0.169638,-4.847208 0.106739,-0.02503 0.215772,-0.04878 0.324717,-0.05809 0.05109,-0.0046 0.09894,-0.0084 0.150248,-0.0096 z m 75.900025,0.571393 c 0.0865,0.0023 0.17073,0.0095 0.26176,0.01935 1.64351,0.178804 3.10399,2.133063 2.62691,3.525236 -0.46543,1.358532 -3.31049,2.148312 -4.57534,1.273538 -2.22338,-1.537867 -1.11636,-4.686572 1.4298,-4.813313 0.0849,-0.0041 0.17048,-0.0073 0.25687,-0.0048 z m 66.61368,0.416436 c 0.0293,-0.0013 0.0605,-0.0023 0.0873,0 0.0715,0.0063 0.12053,0.03255 0.16964,0.06295 0.19591,0.121577 -0.0633,0.300118 -0.57193,0.397083 -0.56218,0.107212 -0.6945,0.01399 -0.34898,-0.227593 0.20528,-0.143447 0.45929,-0.226483 0.66401,-0.23244 z M 52.364075,52.473612 c 0.07428,0 0.146721,-5.9e-5 0.21811,0.0048 1.998486,0.136579 3.328472,2.330371 2.118018,4.077261 -0.915771,1.3217 -2.030352,1.53437 -3.465427,0.644044 -2.239935,-1.38967 -1.983721,-4.076202 0.445897,-4.643832 0.230215,-0.05381 0.46066,-0.08033 0.683402,-0.08232 z M 18.85368,52.691517 c 1.260659,-0.06454 3.402291,1.321549 3.664144,2.44055 0.551078,2.354479 -2.611141,4.905505 -4.570471,3.689879 -1.795415,-1.113855 -1.295139,-5.636564 0.673681,-6.096537 0.07542,-0.01714 0.148557,-0.02897 0.232646,-0.03388 z m 109.4492,0.547189 c 1.92151,0.01889 3.48964,2.267262 2.46699,3.912636 -0.62214,1.000999 -2.87762,1.416396 -3.97432,0.736033 -1.93296,-1.19933 -1.3696,-4.04921 0.90637,-4.580883 0.13544,-0.03186 0.27831,-0.05412 0.41197,-0.06295 0.0626,-0.0041 0.12701,-0.0055 0.18899,-0.0048 z M 95.34503,53.54862 c 0.420263,0.02962 0.856258,0.294767 1.386156,0.798981 2.197565,2.091228 -0.102019,6.358686 -2.592987,4.813314 -1.213884,-0.753091 -1.528422,-3.417249 -0.538014,-4.522773 0.614312,-0.685662 1.088175,-1.042013 1.565528,-1.08469 0.05958,-0.0053 0.119251,-0.009 0.179317,-0.0048 z m 174.94813,0.37286 c 0.0289,-0.0023 0.0558,-0.0013 0.0824,0 0.35282,0.01211 0.52475,0.314526 0.35382,0.823205 -0.24685,0.734264 -0.92475,0.904053 -1.45886,0.36801 -0.22554,-0.226222 -0.0937,-0.625543 0.29078,-0.886158 0.27335,-0.185286 0.52975,-0.287551 0.73186,-0.305057 z m -67.10318,0.639193 c 0.55341,0.0089 1.14249,0.272119 1.68665,0.784466 0.79133,0.745052 0.81802,1.018179 0.19872,2.343704 -0.76625,1.639728 -1.48634,2.009215 -2.5785,1.331635 -0.97717,-0.606202 -1.42847,-2.830648 -0.75121,-3.723771 0.37744,-0.497731 0.89091,-0.744865 1.44434,-0.736034 z m -32.2745,0.585928 c 0.23255,0.0033 0.48982,0.02498 0.8094,0.07748 2.19202,0.360173 2.70981,1.41988 1.50733,3.065216 -1.26676,1.732965 -2.52503,2.032182 -3.79014,0.900678 -1.37794,-1.232291 -1.43727,-1.924093 -0.26171,-3.157225 0.63479,-0.665891 1.03755,-0.895469 1.73512,-0.886149 z M 61.955818,55.345139 c 2.049105,-0.0084 4.178633,2.208646 3.329711,3.907779 -0.542001,1.084631 -2.860432,1.558294 -4.037368,0.828041 -0.619715,-0.384442 -1.057771,-1.221265 -1.226226,-2.363075 -0.226364,-1.534832 -0.08661,-1.826634 1.061439,-2.237166 0.280284,-0.100196 0.579735,-0.135579 0.872444,-0.135579 z m -32.856108,0.5375 c 0.626915,-0.01229 1.33613,0.214595 2.098625,0.687607 3.278082,2.033795 1.409353,5.935546 -2.297341,4.798788 -1.729389,-0.530395 -2.414854,-1.757556 -1.967766,-3.525235 0.319808,-1.264227 1.121504,-1.940559 2.166482,-1.96116 z m 109.08084,0.290541 c 0.15406,0 0.30858,0.02049 0.47501,0.07746 1.27809,0.437519 1.82957,2.170032 1.10505,3.476821 -0.76974,1.388245 -1.47794,1.566025 -2.7481,0.687607 -1.42077,-0.982654 -1.53233,-2.098454 -0.3199,-3.370279 0.58162,-0.610091 1.02586,-0.871619 1.48794,-0.871609 z m -33.428,0.624654 c 1.18207,-0.04273 3.17565,1.4 3.45089,2.576147 0.23004,0.98266 -1.00866,2.887115 -2.04049,3.128157 -0.27735,0.06479 -1.06483,-0.110211 -1.74483,-0.382546 -2.24489,-0.899233 -2.15379,-4.756381 0.12117,-5.287847 0.0709,-0.01619 0.13444,-0.02417 0.21326,-0.02907 l 0,-0.0048 z m 109.96296,1.060485 c 0.0289,-0.0013 0.0608,-0.0013 0.0873,0 0.35308,0.02104 0.48619,0.292142 0.62521,0.886158 0.44916,1.919074 -1.33063,3.631576 -2.29735,2.208105 -0.83883,-1.235372 -0.52832,-2.417105 0.76581,-2.881195 0.35181,-0.126207 0.61595,-0.203723 0.81907,-0.213068 z M 72.448983,58.056853 c 0.159101,0.005 0.319669,0.01463 0.489546,0.04843 1.377532,0.27591 2.186657,2.322828 1.672122,4.241902 -0.399174,1.489141 -2.391975,1.810324 -3.678678,0.585932 -1.977533,-1.881856 -0.868592,-4.949132 1.51701,-4.876264 z m -33.45707,0.581081 c 0.513893,-0.04231 1.132782,0.206475 1.962952,0.721513 1.742181,1.080847 1.883768,2.452099 0.445896,4.537293 -1.121366,1.626198 -1.408987,1.72458 -2.636633,0.871632 -1.67978,-1.166978 -2.19945,-2.796212 -1.415269,-4.47434 0.5,-1.069968 0.982349,-1.601701 1.643054,-1.656098 z m 142.092067,0.101691 c 1.00706,-0.01293 2.18821,0.425003 2.33126,1.036277 0.29285,1.251119 -2.06043,3.302962 -3.06799,2.677822 -0.77556,-0.481068 -1.03274,-2.972979 -0.35379,-3.433246 0.22939,-0.155515 0.54388,-0.249527 0.8918,-0.276001 0.0651,-0.005 0.13159,-0.0041 0.19872,-0.0048 z m 75.5317,0.450344 c 0.56982,-0.04821 1.16391,0.218359 1.74965,0.769928 1.75025,1.648077 -0.87496,4.607178 -2.94681,3.321869 -1.03631,-0.642957 -1.17529,-1.858179 -0.34897,-3.050683 0.44246,-0.638541 0.97616,-0.993057 1.54613,-1.041114 z m 33.1711,0.203384 c 0.2293,-0.0056 0.44544,0.152701 0.49917,0.382549 0.0615,0.262618 -0.10545,0.534251 -0.36831,0.595599 -0.26291,0.06141 -0.53466,-0.105392 -0.59615,-0.36801 -0.0615,-0.262632 0.10545,-0.534158 0.36837,-0.595617 0.033,-0.0076 0.0641,-0.01366 0.0969,-0.01444 z M 148.6253,60.187489 c 0.42026,-0.01366 0.80307,0.122573 1.04204,0.474553 0.57758,0.850444 -0.16799,1.764649 -1.74965,2.145171 -0.87662,0.21083 -1.13347,0.03658 -1.21169,-0.842576 -0.0861,-0.968042 0.99453,-1.74674 1.9193,-1.777148 z M 6.8725291,60.308553 C 7.9682183,60.277787 9.0393786,60.971675 9.465559,62.226136 10.222138,64.453255 8.1171405,66.37662 5.9032023,65.48989 4.1768396,64.798331 3.701828,62.534021 5.0016897,61.170501 5.5409375,60.604829 6.2151241,60.32719 6.8725291,60.308553 z m 76.2393139,0.721513 c 1.670832,0.02697 2.135301,1.744607 0.94997,3.525238 -0.967988,1.454205 -1.940252,1.833067 -2.990464,1.181533 -1.855288,-1.151032 -0.298203,-4.744533 2.040494,-4.706771 z m 32.366557,0.06294 c 0.54875,-0.0098 1.04792,0.164131 1.24077,0.595617 0.75924,1.698826 -1.68918,3.773649 -2.69964,2.285593 -0.23401,-0.344672 -0.45534,-1.038669 -0.47497,-1.535034 -0.0312,-0.787281 1.01926,-1.32949 1.93384,-1.346176 z m 108.39749,0.208221 c 1.1923,-0.0053 1.93604,1.540775 1.17291,2.547092 -0.40253,0.530877 -0.77763,0.597979 -1.53645,0.276003 -1.4134,-0.599831 -1.22976,-2.687745 0.24722,-2.818244 0.0394,-0.0033 0.0779,-0.0047 0.11632,-0.0048 z m -173.809156,0.28086 c 1.184182,-0.01027 1.854104,0.702504 2.224668,2.285612 0.371296,1.58662 -0.794086,4.340232 -1.948418,4.609926 -0.286749,0.06699 -1.166804,-0.271139 -1.962906,-0.765095 -2.656854,-1.648325 -2.183402,-5.317 0.78033,-6.009379 0.330857,-0.07748 0.633057,-0.121064 0.906326,-0.121064 z m 140.478076,0.0436 c 1.07533,0.01495 2.49203,0.528514 2.64145,1.167009 0.10602,0.452711 -0.11046,1.278592 -0.4895,1.825562 -0.79829,1.152119 -0.80371,1.148712 -2.05502,0.765094 -1.04824,-0.321325 -1.85993,-2.77888 -1.15355,-3.481659 0.17313,-0.172227 0.47982,-0.252049 0.84338,-0.271169 0.0682,-0.0037 0.14153,-0.0057 0.21324,-0.0048 z m -174.192046,0.75056 c 0.04993,-0.0013 0.09972,0.0023 0.150253,0.0048 0.53888,0.02636 1.116734,0.279546 1.657587,0.794149 0.814397,0.775071 1.119945,1.610251 1.303759,3.481659 0.317469,3.23176 1.536726,5.384239 4.662585,8.261071 2.87015,2.641573 3.238192,3.444247 2.239201,4.885953 -1.120036,1.616431 -3.328747,1.755929 -8.496329,0.522964 -2.678908,-0.639232 -5.334936,-1.61904 -5.908205,-2.164527 -1.900596,-1.808553 -1.382164,-6.926068 0.799724,-7.859163 1.23292,-0.527207 1.767675,-1.952607 1.366758,-3.66567 -0.554791,-2.370462 0.677259,-4.219856 2.224667,-4.261274 z m 251.109866,0.571407 c 0.47903,0.01714 0.75295,0.205107 0.92091,0.581081 0.464,1.038125 -0.19598,2.412719 -1.28923,2.668139 -0.4614,0.107844 -1.17409,-0.0461 -1.58001,-0.353489 -1.36455,-1.032797 -0.97336,-2.321211 0.84328,-2.745625 0.45662,-0.106714 0.81765,-0.160414 1.10505,-0.150106 z m -33.86904,0.624658 c 0.0404,-0.0013 0.0801,-0.0023 0.12118,0 0.43805,0.02448 0.90701,0.227217 1.3474,0.663401 0.97767,0.968492 0.42995,2.507551 -1.10022,3.065217 -0.88097,0.321078 -1.29647,0.176644 -1.69152,-0.571394 -0.86437,-1.63677 0.0694,-3.131993 1.32316,-3.157224 z m -32.64282,0.61497 c 0.0665,-0.0027 0.13284,-0.0033 0.19872,0 0.82008,0.04149 1.57313,0.562177 1.82237,1.627042 0.46731,1.996579 -1.71939,3.636505 -3.43635,2.571296 -0.97856,-0.607101 -1.11449,-0.933479 -0.88694,-2.067683 0.2708,-1.349858 1.30523,-2.08762 2.3022,-2.130655 z M 92.563008,64.322889 c 1.630806,0.03374 2.618335,1.701838 1.51219,3.481658 -0.944052,1.518945 -1.735023,1.721724 -3.097101,0.779611 -1.484557,-1.026745 -1.405553,-3.104709 0.155112,-3.90778 0.446483,-0.22977 0.871839,-0.331491 1.269816,-0.348657 0.05403,-0.0023 0.107351,-0.0059 0.159983,-0.0048 z m 33.282612,0.169473 c 0.48289,-0.0065 0.75231,0.207519 0.85786,0.658569 0.40123,1.714383 -1.49427,3.23583 -2.38944,1.917564 -0.73642,-1.084469 -0.30185,-2.199494 0.97903,-2.498646 0.21161,-0.0497 0.39157,-0.07749 0.55255,-0.07749 z m -66.633084,0.184016 c 1.333929,-0.03036 3.087666,1.016547 3.373314,2.237161 0.351581,1.502141 -0.873865,3.446042 -2.394268,3.801255 -0.657221,0.153559 -1.711645,-0.03819 -2.360384,-0.440642 -0.648739,-0.402493 -1.279688,-1.145354 -1.395827,-1.641563 -0.267859,-1.144607 0.73558,-3.078591 1.948372,-3.757678 0.239156,-0.133939 0.520952,-0.191678 0.828793,-0.198533 z m 217.759434,0.455181 c 0.28974,-7.8e-5 0.58208,0.107056 0.85786,0.3438 0.97768,0.839066 1.03925,2.462627 0.12604,3.602723 -0.89577,1.118318 -1.7403,1.184236 -2.60755,0.198533 -1.22356,-1.390651 0.0731,-3.990632 1.50247,-4.140224 0.0413,-0.0041 0.0798,-0.0048 0.12118,-0.0048 z M 26.55033,65.610943 c 1.335626,-0.01059 2.635625,0.768887 2.975882,2.222646 0.380651,1.626405 -0.695736,3.668655 -2.113158,3.999788 -0.537689,0.125649 -1.627236,-0.179179 -2.423383,-0.673085 -1.75502,-1.08884 -2.147822,-2.452522 -1.168089,-4.028849 0.633426,-1.019187 1.689913,-1.512163 2.728748,-1.5205 z m 217.17297,0.585935 c 0.18123,-0.0046 0.37551,0.02307 0.57674,0.092 1.18919,0.407299 1.89671,2.086982 1.34742,3.186271 -0.51022,1.021164 -1.24925,1.208285 -2.54452,0.658565 -1.83641,-0.779289 -1.18291,-3.695882 0.44589,-3.922319 0.0581,-0.0081 0.11408,-0.01307 0.17447,-0.01444 z m -141.57827,0.823203 c 0.68931,0.01184 1.39853,0.433494 2.37973,1.399436 1.5928,1.567995 1.74439,1.600771 4.20211,1.026574 1.86502,-0.43573 3.06703,-0.398339 4.4348,0.121065 4.32645,1.64332 6.97767,7.147442 5.16661,10.711303 -1.46515,2.883217 -4.5071,4.987608 -6.45583,4.459805 -1.62746,-0.440772 -4.19496,-1.968766 -6.21353,-3.689865 -2.15245,-1.835313 -2.73879,-3.785854 -1.89995,-6.333809 0.66987,-2.034576 0.0706,-2.924354 -1.84177,-2.755298 -2.256671,0.199496 -2.460527,-4.366912 -0.21811,-4.890797 0.106,-0.02498 0.20535,-0.03718 0.31022,-0.04356 0.0459,-0.0027 0.0897,-0.0056 0.13572,-0.0048 z m 33.15171,0.600455 c 0.15906,-0.0041 0.32512,0.05293 0.48954,0.154952 0.49556,0.307441 0.56575,0.611709 0.29079,1.162159 -0.48822,0.977184 -1.00555,1.07961 -1.53155,0.305079 -0.48542,-0.714845 0.062,-1.605029 0.75122,-1.62219 z m 75.53652,0.266332 c 1.00242,0.01288 1.66395,0.960686 1.54131,2.53739 -0.0776,0.99596 -1.77236,1.824299 -2.63663,1.288073 -0.77323,-0.479683 -1.00359,-2.848778 -0.3199,-3.312185 0.433,-0.293462 0.83998,-0.463389 1.21168,-0.503609 0.0697,-0.0076 0.13673,-0.01059 0.20354,-0.0096 z m -141.500736,0.0096 c 1.603116,-0.07102 3.039888,1.800641 2.258596,3.93684 -0.593443,1.622659 -1.854286,2.046294 -3.237597,1.089524 -1.481797,-1.024848 -1.764465,-3.02637 -0.601008,-4.24675 0.494956,-0.51922 1.045666,-0.756074 1.580009,-0.779614 z M 286.8351,69.194235 c 0.43119,0.0112 0.85403,0.187914 1.04206,0.464869 0.44194,0.6509 -0.0695,2.273031 -0.76581,2.435713 -0.19848,0.04609 -0.68917,-0.174282 -1.10503,-0.489074 -1.01798,-0.770568 -0.7702,-2.093603 0.44589,-2.377614 0.0678,-0.01618 0.1287,-0.0227 0.19871,-0.02902 0.0613,-0.0055 0.12257,-0.0063 0.18418,-0.0048 z M 37.029006,69.368568 c 0.92155,-0.01105 1.787254,0.35128 2.33127,1.055631 0.731499,0.947115 0.677808,1.237546 -0.411967,2.789196 -1.416322,2.016495 -1.535029,2.087144 -3.179458,1.428498 -1.852131,-0.741909 -2.395139,-3.555659 -0.886978,-4.571183 0.68551,-0.461536 1.430352,-0.693811 2.147133,-0.702142 z m 216.702804,0.02907 c 1.33072,-0.07018 2.70671,0.935223 2.23921,2.300115 -0.33609,0.981396 -2.73842,2.10582 -3.4945,1.636726 -0.72311,-0.44865 -0.93649,-2.340505 -0.35383,-3.108799 0.41248,-0.543938 1.00422,-0.796171 1.60912,-0.828042 z m 42.38482,1.27354 c 0.2674,0.0092 0.59243,0.115809 1.07112,0.29054 0.75795,0.27675 1.45886,0.755108 1.56551,1.070165 0.89124,2.634326 -1.31192,4.781798 -3.50908,3.418713 -1.40403,-0.87111 -1.60935,-2.716427 -0.44589,-3.936842 0.58578,-0.614553 0.87271,-0.857781 1.31834,-0.842576 z M 3.8966468,70.840654 c 0.1002754,-0.0037 0.1996787,-1.56e-4 0.3053185,0.01444 1.187987,0.16332 1.5902337,2.342388 0.596149,3.215338 C 3.6901821,75.043393 3.0330982,75.135955 2.5298432,74.39487 1.5366294,72.932329 2.3922458,70.897957 3.8966468,70.840575 z m 216.7803932,0.0436 c 0.3419,0.01633 0.72742,0.217473 1.30376,0.600454 1.3165,0.874712 1.32856,0.938824 0.70279,2.067682 -0.79917,1.441462 -1.49528,1.622723 -2.77721,0.736039 -1.39595,-0.965552 -1.49991,-1.994137 -0.30531,-2.915102 0.43406,-0.334612 0.73401,-0.505253 1.07597,-0.489073 z M 79.215053,71.881776 c 1.390185,-0.0086 2.617143,1.710611 1.560656,2.939323 -0.75796,0.881535 -0.889088,0.928788 -1.91449,0.769932 -0.975509,-0.151105 -1.448226,-2.829895 -0.600955,-3.404182 0.312606,-0.211914 0.633967,-0.305073 0.954789,-0.305073 z m 108.911237,0.227593 c 1.05833,0.01073 1.73168,0.96264 1.34737,2.072538 -0.46116,1.33185 -1.17304,1.506843 -2.22462,0.566559 -1.24824,-1.116315 -1.06658,-2.233044 0.40224,-2.576151 0.16456,-0.03872 0.32379,-0.06295 0.47501,-0.06295 z M 46.097226,72.583922 c 0.924347,-0.04649 1.828885,0.627673 2.069601,1.656083 0.47061,2.011004 -1.459055,3.433028 -3.038926,2.237177 -1.027097,-0.777468 -0.812609,-3.230901 0.324714,-3.738308 0.206372,-0.09205 0.431315,-0.144162 0.644611,-0.154952 z m 217.599514,0.06783 c 1.32311,-0.04879 2.17689,1.502543 1.51219,2.832774 -0.47464,0.949899 -0.61962,0.992051 -2.19559,0.6392 -2.57974,-0.577468 -2.16814,-3.152985 0.55254,-3.462287 0.0436,-0.0048 0.0882,-0.0081 0.13086,-0.0096 z m -65.78003,1.162156 c 0.75813,0.03356 2.21155,1.411877 2.43306,2.35823 0.1928,0.823967 -0.0413,1.095664 -1.13411,1.351025 -0.75641,0.176699 -1.70276,0.07093 -2.10349,-0.232433 -0.57208,-0.432988 -0.61922,-0.851235 -0.2133,-1.961157 0.28442,-0.77742 0.68052,-1.456503 0.87244,-1.50113 0.0436,-0.01023 0.0948,-0.01682 0.1454,-0.01444 z m 32.48288,0.532675 c 0.27337,0.01539 0.63439,0.139355 1.13897,0.353485 0.90514,0.384101 0.98547,0.600928 0.59616,1.380079 -0.57322,1.147296 -1.43577,1.362434 -2.42339,0.614971 -0.60844,-0.460606 -0.66571,-0.746107 -0.32472,-1.42849 0.32986,-0.660122 0.55737,-0.945568 1.01298,-0.920045 z M 89.87304,75.15525 c 0.03578,0 0.07021,-6.4e-5 0.10666,0.0048 0.927693,0.12747 1.197842,1.000801 0.60096,1.961165 -0.568265,0.914245 -0.9254,0.981364 -1.793264,0.324432 -0.836495,-0.633243 -0.07958,-2.221842 0.979007,-2.285597 0.03531,-0.0024 0.07085,-0.004 0.106637,-0.0048 z m -33.529783,0.01936 c 1.766437,-0.0261 3.163181,2.7876 1.885373,4.183799 -0.662953,0.724448 -2.309994,0.996715 -3.097064,0.508445 -1.679,-1.041675 -1.09812,-4.186893 0.857908,-4.643817 0.120405,-0.0284 0.235993,-0.04839 0.353783,-0.04839 z m 217.560723,0.19853 c 0.226,0 0.46368,0.05506 0.69307,0.169479 1.00486,0.501171 1.47478,2.236527 0.8724,3.205649 -0.63956,1.029069 -2.49638,1.314768 -3.23759,0.503598 -1.2474,-1.365092 0.0901,-3.883637 1.67212,-3.878726 z m -33.11783,1.045952 c 0.67923,-0.02221 1.35155,0.345202 1.67218,1.239637 0.7772,2.168661 -0.34086,3.496195 -2.39432,2.86669 -0.52271,-0.160237 -1.0686,-0.783149 -1.21169,-1.394598 -0.36511,-1.560188 0.8017,-2.674948 1.93383,-2.711729 z m -108.45562,0.377707 c 0.0616,-0.0016 0.12603,0.0016 0.18904,0.0048 0.13439,0.0084 0.27244,0.04022 0.41198,0.07743 1.50076,0.401627 1.75428,1.832957 0.538,3.108794 -1.19303,1.251411 -1.58419,1.376763 -2.5155,0.799009 -1.75149,-1.08666 -0.53393,-3.927066 1.37648,-3.990122 z m 75.934,0.542338 c 0.65575,0.02285 1.29188,0.347812 1.77872,0.978166 1.47249,1.906335 -1.075,4.021333 -3.23279,2.682669 -1.25978,-0.78161 -1.3883,-1.703027 -0.40224,-2.803737 0.53283,-0.594732 1.2005,-0.880138 1.85631,-0.857098 z M 34.591089,78.946801 c 0.765933,0 0.939385,0.35753 1.347363,1.622197 0.317515,0.983943 0.393764,2.156635 0.169647,2.605181 -0.495277,0.991257 -3.16208,1.695657 -4.13911,1.08954 -1.013617,-0.628879 -1.419577,-2.87775 -0.722191,-3.999786 0.384732,-0.619168 1.21756,-1.056813 2.360385,-1.225126 0.416322,-0.06109 0.728564,-0.09209 0.983906,-0.09201 z m 216.363571,0.750572 c 0.99183,-0.04641 1.82796,0.571875 1.91929,1.607656 0.0657,0.746527 -0.28569,1.168242 -1.30375,1.501147 -0.77268,0.252711 -1.75048,0.333333 -2.16167,0.183998 -1.11118,-0.403317 -0.77818,-2.349527 0.51861,-3.016796 0.34206,-0.176001 0.69693,-0.26032 1.02752,-0.276005 z M 66.511754,79.832952 c 0.341587,-0.0092 0.656029,0.221841 0.736681,0.566567 0.09225,0.394002 -0.143651,0.798842 -0.537965,0.890992 -0.39436,0.0921 -0.794726,-0.158079 -0.886978,-0.552041 -0.09211,-0.393963 0.158231,-0.794034 0.552545,-0.886136 0.04934,-0.01031 0.08711,-0.01936 0.135717,-0.01936 z m 75.948486,0.01452 c 1.53021,0.01761 2.05763,1.55823 0.87239,2.881218 -1.13315,1.264945 -1.56854,1.368154 -2.13255,0.53749 -0.24397,-0.359237 -0.42324,-1.234527 -0.41196,-1.946638 0.017,-1.049887 0.26653,-1.313507 1.34741,-1.438177 0.11063,-0.01277 0.22269,-0.02904 0.32471,-0.02904 l 0,-0.0048 z M 0.87225546,80.108837 c 1.21022434,0.0169 2.51279154,0.986942 2.79174614,2.179064 0.2381472,1.017295 -1.3326451,3.462374 -2.3894537,3.709262 -0.29009623,0.06783 -0.90857377,-0.136903 -1.42980234,-0.460034 l 0,-5.181332 c 0.16309026,-0.07767 0.33493802,-0.15439 0.52347531,-0.198525 0.16529113,-0.0388 0.33108646,-0.04847 0.50403459,-0.04847 z M 43.610845,81.934416 c 1.300872,0.0215 3.102291,1.171851 3.387894,2.392114 0.451536,1.929343 -3.409994,4.297148 -5.200545,3.186291 -1.807474,-1.121362 -1.255525,-4.094872 1.012974,-5.408926 0.222329,-0.128891 0.499542,-0.174382 0.799677,-0.169479 z m 217.391075,0.353485 c 0.95755,0.0063 1.90192,0.544734 2.1326,1.530199 0.33421,1.427863 -1.56264,3.123171 -3.21825,2.866667 -0.83334,-0.129081 -1.4066,-2.474569 -0.82879,-3.404173 0.42672,-0.686596 1.16983,-0.998073 1.91444,-0.992693 z M 10.968034,83.421028 c 0.788996,-0.03999 1.428977,0.530128 1.84177,1.670625 0.848876,2.34529 -1.413205,3.889834 -3.8967898,2.668135 C 7.3105384,86.971577 7.4794059,85.728291 9.4025149,84.157066 9.966934,83.695969 10.494673,83.445059 10.968034,83.421028 z M 152.19737,84.18612 c 0.14008,4.7e-5 0.2817,0.04943 0.38772,0.154952 0.21214,0.212837 0.21146,0.56771 0,0.779619 -0.21298,0.211956 -0.55851,0.211226 -0.77061,0 -0.21216,-0.212845 -0.21151,-0.567599 0,-0.779619 0.10651,-0.106121 0.24278,-0.155048 0.38289,-0.154952 z m -98.403493,1.075005 c 0.450436,-0.01 0.863502,0.102201 1.119578,0.353485 0.961026,0.943139 1.201008,2.980999 0.475011,4.028855 -0.900688,1.299821 -1.5558,1.413098 -2.990463,0.522972 -1.368729,-0.849173 -1.759512,-2.044866 -1.148647,-3.481662 0.349199,-0.821365 1.553645,-1.401579 2.544521,-1.42365 z m 141.389263,0.39708 c 0.65723,-0.01309 1.13889,0.20795 1.22623,0.581078 0.17569,0.750835 -1.41214,1.642977 -2.13259,1.196057 -1.02701,-0.637106 -0.6946,-1.611805 0.61072,-1.762616 0.10041,-0.01031 0.20175,-0.01452 0.29564,-0.01452 z M 19.929654,85.70184 c 0.0431,-0.0016 0.09088,0.0024 0.135718,0.0048 1.255294,0.06077 3.182117,1.10678 3.712608,2.111262 1.232736,2.334334 -3.140485,4.926821 -5.200549,3.08459 -0.545896,-0.488112 -1.049426,-1.128399 -1.119624,-1.428506 -0.224209,-0.958039 1.225263,-3.516308 2.113204,-3.723766 0.109675,-0.02571 0.229666,-0.04475 0.358643,-0.04847 z m 251.197156,0.256647 c 0.97089,0.02364 1.54343,0.981959 1.04205,1.98537 -0.54511,1.091055 -1.63856,1.33826 -2.20527,0.50359 -0.69037,-1.016637 -0.3332,-2.182348 0.75126,-2.435694 0.0759,-0.01809 0.14062,-0.0411 0.21325,-0.04847 0.068,-0.0071 0.13397,-0.0063 0.19871,-0.0048 z m -66.14353,1.631869 c 0.26772,0.0032 0.56909,0.08779 0.8724,0.276021 1.08437,0.672712 1.32975,1.481534 0.73668,2.43571 -0.65796,1.05863 -2.03816,1.207045 -2.59298,0.276012 -0.87231,-1.463874 -0.17607,-3.000992 0.9839,-2.987743 z M 30.248402,88.369983 c 0.480423,-0.02618 1.024715,0.18568 1.686659,0.629505 1.347546,0.903551 1.789774,2.068595 1.366757,3.646301 -0.327556,1.221993 -0.852819,1.388663 -3.160062,0.96848 -2.033746,-0.370376 -2.705411,-2.069682 -1.550941,-3.927169 0.53095,-0.854314 1.039891,-1.28328 1.657587,-1.317117 z m -30.40365644,2.973192 c 0.46116438,0.700163 0.5526821,1.545099 0.14057766,2.208109 -0.03851482,0.06228 -0.09000461,0.109595 -0.14057766,0.169471 z M 41.042072,92.582812 c 0.08395,-0.004 0.169876,0 0.25204,0.0048 1.446263,0.09333 2.558319,1.61774 1.59459,3.355746 -0.759239,1.36948 -1.307014,1.535246 -2.927418,0.88616 -1.623567,-0.650403 -1.913296,-2.075069 -0.678541,-3.370281 0.54993,-0.576865 1.171847,-0.846856 1.759329,-0.876472 z m 216.727068,0.125899 c 0.68982,-0.0048 1.45901,0.272887 1.79335,0.765084 0.8565,1.261518 -1.03035,3.199279 -2.33131,2.392114 -0.60697,-0.376532 -0.95177,-2.358419 -0.48955,-2.818231 0.23076,-0.229593 0.6137,-0.334056 1.02751,-0.338967 z M 7.3474943,93.231644 c 0.055393,-0.0016 0.1135253,-0.0016 0.1696473,0 1.1543779,0.03665 2.4249877,0.784307 2.7287464,2.082217 0.458368,1.958475 -2.0952301,3.980197 -3.7417227,2.958689 C 5.6347487,97.733179 5.1803697,95.928665 5.5542345,94.53425 5.7875676,93.663751 6.5170496,93.255849 7.3474943,93.231644 z M 137.96245,94.442251 c 0.48077,-0.01912 0.95638,0.286271 1.0469,0.673085 0.0905,0.386743 -0.20528,0.859709 -0.64462,1.055631 -0.56042,0.25007 -0.85919,0.06061 -1.02751,-0.658574 -0.16836,-0.719251 0.0119,-1.046119 0.62523,-1.070142 z m -87.924785,0.881297 c 0.299909,-0.0048 0.655892,0.06474 1.119578,0.188845 1.33911,0.358308 1.900412,2.626673 0.979046,3.956222 -0.841495,1.214485 -0.819257,1.207165 -2.345804,0.595605 -1.441907,-0.577572 -2.023108,-2.346448 -1.197157,-3.675346 0.421779,-0.678615 0.778726,-1.00991 1.323154,-1.060487 0.04081,-0.004 0.07831,-0.004 0.121183,-0.0048 z M 192.38173,95.53663 c 0.26491,0 0.49381,0.09696 0.60586,0.314737 0.1272,0.247269 -0.25772,0.638867 -0.8579,0.871617 -0.74828,0.290198 -1.07117,0.209529 -1.02752,-0.261478 0.046,-0.498584 0.64192,-0.872474 1.16323,-0.920052 0.0389,-0.004 0.0785,-0.0048 0.11633,-0.0048 z m 75.36205,0.334103 c 0.70849,-0.01817 1.12654,0.332556 1.43463,1.191218 0.39618,1.103907 0.29237,1.327962 -0.78035,1.578626 -0.68298,0.159531 -1.44314,-0.01095 -1.68666,-0.368027 -0.74707,-1.100329 -0.31347,-2.285501 0.88694,-2.392122 0.0499,-0.0048 0.0982,-0.0084 0.14544,-0.0097 z M 18.146069,96.325928 c 0.718982,-0.004 1.433379,0.235495 1.962907,0.736023 0.880421,0.832107 0.872443,1.02945 -0.155066,2.682677 -1.305044,2.099852 -1.749152,2.280112 -3.324897,1.302592 -1.484685,-0.92117 -1.804859,-2.201295 -0.877257,-3.539762 0.530902,-0.766147 1.470013,-1.176627 2.394313,-1.18153 z M 201.93949,98.67447 c 0.51642,7.93e-4 0.94947,0.162426 1.00326,0.392225 0.0615,0.262676 -0.36355,0.654314 -0.9354,0.876465 -0.7154,0.27778 -1.08564,0.17057 -1.21169,-0.368011 -0.12605,-0.538594 0.15631,-0.82308 0.9209,-0.891 0.0763,-0.0063 0.14921,-0.0098 0.22293,-0.0098 z M 60.467831,99.376608 c 0.361577,-0.01015 0.903531,0.182602 1.289272,0.474553 0.664189,0.502779 0.697753,0.718199 0.21325,1.210589 -0.799036,0.812 -1.056534,0.83344 -1.914488,0.18401 -0.831087,-0.62912 -0.68088,-1.631046 0.27625,-1.854617 0.0431,-0.0098 0.08409,-0.0146 0.135716,-0.0146 z m -32.138775,0.07751 c 1.550893,0.02245 2.676753,1.146462 2.224666,2.832782 -0.39569,1.47594 -1.533792,2.36245 -2.806234,2.19359 -2.65525,-0.35236 -3.701466,-3.04378 -1.686705,-4.32422 0.778635,-0.494789 1.563412,-0.71245 2.268273,-0.702152 z m 61.161089,0.36318 c 1.321282,-0.0048 2.375889,1.535422 1.536411,2.886042 -0.596199,0.95923 -1.880598,1.1968 -2.777167,0.51814 -0.973962,-0.73721 -0.81912,-2.46786 0.290785,-3.12816 0.312881,-0.186078 0.645072,-0.276022 0.949971,-0.276022 z m 14.452995,1.995162 c 0.32885,-0.006 0.63669,0.22179 0.71734,0.56655 0.16836,0.71926 -0.78318,1.21693 -1.48794,0.77963 -0.55043,-0.34143 -0.16846,-1.14509 0.63007,-1.33164 0.0474,-0.0104 0.0934,-0.0146 0.14053,-0.0146 z m -66.148384,0.33897 c 0.04695,-0.002 0.09399,-0.002 0.140578,0 0.957633,0.0357 1.830031,0.80096 2.161622,2.2178 0.190555,0.8142 0.149656,1.80469 -0.09207,2.19358 -0.699174,1.12495 -2.492297,1.28999 -3.572029,0.32444 -1.306557,-1.16833 -1.522009,-2.21594 -0.678588,-3.43322 0.592709,-0.85532 1.336404,-1.27634 2.040487,-1.3026 z m 217.163294,0.184 c 0.26148,-0.0182 0.48922,0.18064 0.75125,0.56657 0.51087,0.75226 0.15746,2.68939 -0.51861,2.8473 -0.23485,0.0549 -0.88075,-0.17753 -1.42976,-0.51812 -0.93777,-0.58184 -0.94818,-0.68858 -0.13571,-1.73357 0.59674,-0.76752 0.9966,-1.13863 1.33283,-1.16218 z M 4.2649639,102.51941 c 0.2823476,-0.0117 0.6268683,0.0613 1.1050895,0.19855 0.9051349,0.25987 1.5871612,0.88517 1.8853729,1.71418 0.9184312,2.55366 -1.7002287,4.80132 -3.8531856,3.31219 -1.5239791,-1.05407 -1.7551575,-3.027 -0.5185692,-4.32423 0.5925718,-0.62152 0.9107744,-0.88107 1.3812924,-0.90069 z m 66.2647161,0.0436 c 0.233012,0.0163 0.457267,0.27025 0.53801,0.61498 0.09211,0.39395 -0.04264,0.76665 -0.305364,0.82804 -0.262907,0.0614 -0.552361,-0.20645 -0.644613,-0.60046 -0.09211,-0.39401 0.04264,-0.76663 0.305365,-0.82803 0.03301,-0.007 0.07322,-0.0146 0.106602,-0.0146 z m 9.945525,1.93694 c 0.05355,-7.9e-4 0.108207,0.002 0.164782,0.01 1.437416,0.19765 1.692436,3.84183 0.290825,4.16927 -0.157769,0.0368 -0.609108,-0.12647 -0.998429,-0.36801 -1.560196,-0.96795 -1.165106,-3.67134 0.382887,-3.80126 0.05165,-0.005 0.106438,-0.009 0.159935,-0.01 z m -33.025709,0.49876 c 0.593764,-0.0101 1.226317,0.17334 1.773911,0.55204 1.027464,0.71076 1.087711,0.90128 0.70761,2.22263 -0.459147,1.59629 -2.273681,2.55598 -3.450894,1.82559 -0.933608,-0.5792 -1.450434,-2.72406 -0.877257,-3.64631 0.336406,-0.54123 0.931133,-0.86468 1.594589,-0.93941 0.08295,-0.009 0.167218,-0.0131 0.252041,-0.0146 z m -32.080638,1.21059 c 1.219074,0.0295 2.045345,1.18826 1.594589,2.91511 -0.590234,2.26096 -1.682118,2.83026 -3.295781,1.71419 -1.432048,-0.99052 -1.493122,-2.81369 -0.125997,-3.90778 0.634571,-0.50789 1.273086,-0.73475 1.827189,-0.72152 z m 249.471712,0.32444 c 0.34159,-0.009 0.65598,0.2218 0.73673,0.56656 0.1745,0.74569 -0.35382,1.07964 -1.03237,0.65856 -0.67864,-0.42094 -0.60582,-1.03619 0.14052,-1.2106 0.0494,-0.0103 0.10602,-0.0145 0.15512,-0.0145 z m -174.322903,2.03864 c 0.05926,-7.9e-4 0.122916,0.006 0.18418,0.0145 0.449014,0.0617 0.889674,0.44038 0.983903,0.84258 0.195279,0.8346 -1.446817,1.39491 -2.118062,0.72151 -0.583672,-0.58561 0.05903,-1.5693 0.949979,-1.57861 z m -65.242026,0.66825 c 1.389178,-0.0316 2.403758,1.19286 1.628471,2.97804 -0.797982,1.83769 -2.757861,2.60684 -3.75621,1.4721 -1.144017,-1.30023 -1.156808,-2.22295 -0.063,-3.37031 0.658917,-0.69124 1.392571,-1.02174 2.055019,-1.07499 0.0454,-0.004 0.09088,-0.004 0.135718,-0.005 z m 32.264773,0.11137 c 0.330215,-0.0144 0.683906,0.31704 0.857863,1.06048 0.180146,0.76961 -0.01284,1.31834 -0.552498,1.55923 -0.673546,0.30049 -0.867583,0.11303 -0.998441,-1.01205 -0.115589,-0.9934 0.268546,-1.58902 0.693076,-1.60766 z m 216.780396,0 c 0.66607,0.0103 1.3216,1.20431 0.93539,1.82557 -0.19115,0.30652 -0.52948,0.44255 -0.75122,0.30506 -0.62819,-0.38978 -0.87463,-1.98766 -0.3247,-2.1161 0.044,-0.0104 0.0964,-0.0145 0.14053,-0.0145 z m -173.28087,1.90305 c 0.75846,-0.0158 0.97194,0.25043 1.15355,1.02658 0.34158,1.45951 -1.21659,2.25371 -2.656036,1.3607 -1.71242,-1.06242 -1.49403,-1.97988 0.537986,-2.28076 0.39595,-0.0587 0.71173,-0.1011 0.9645,-0.10652 z m -66.448851,0.79414 c 0.596515,0.004 1.203117,0.26442 1.749656,0.78446 1.029435,0.97968 1.04828,1.11216 0.4265,2.54225 -0.812332,1.86838 -2.125445,2.44242 -3.465427,1.51565 -1.32806,-0.91861 -1.642457,-2.37298 -0.78033,-3.61724 0.564237,-0.81426 1.302613,-1.23054 2.069601,-1.22512 z m 249.888491,0.53266 c 0.0179,3.1e-4 0.0344,0.002 0.0533,0.005 0.30457,0.0279 0.60073,0.25413 0.65914,0.5036 0.0583,0.24958 -0.10285,0.59048 -0.3635,0.75057 -0.26053,0.16016 -0.56159,-0.0658 -0.66401,-0.50361 -0.0897,-0.38308 0.0275,-0.69926 0.26172,-0.75056 0.017,-0.004 0.0353,-0.005 0.0533,-0.005 z m -32.6186,1.0169 c 0.34163,-0.009 0.65608,0.22178 0.73673,0.56655 0.0922,0.39397 -0.15819,0.77952 -0.55254,0.87163 -0.39432,0.0921 -0.78025,-0.15802 -0.87241,-0.55203 -0.0922,-0.39396 0.15814,-0.77956 0.5525,-0.87162 0.0494,-0.0102 0.0871,-0.0146 0.13572,-0.0146 z M 1.8755563,115.07081 c 0.22641,-0.006 0.4308573,0.15273 0.48464,0.38255 0.061485,0.26263 -0.1054103,0.53422 -0.3683172,0.59562 -0.2628611,0.0614 -0.5201741,-0.10541 -0.5816138,-0.36802 -0.061485,-0.26267 0.1054562,-0.53421 0.3683173,-0.59561 0.033011,-0.008 0.064604,-0.0137 0.096974,-0.0146 z m 75.8176257,0.68762 c 0.353321,-6e-5 0.749242,0.26 0.920864,0.64404 0.250251,0.55991 0.04617,0.8729 -0.67368,1.0411 -0.719901,0.16823 -1.032556,-0.0315 -1.05659,-0.64403 -0.01923,-0.48038 0.27199,-0.93615 0.659153,-1.02657 0.04843,-0.0102 0.09973,-0.0146 0.150253,-0.0146 z m -32.734929,0.87163 0,0.005 c 0.376663,0.0155 0.570244,0.23777 0.586475,0.65856 0.0353,0.91871 -0.67171,1.53977 -1.303806,1.14764 -0.834754,-0.5179 -0.665244,-1.53925 0.29083,-1.76262 0.16708,-0.0393 0.30101,-0.0539 0.426501,-0.0485 z m 216.950037,0.15011 c 0.21944,0.0197 0.44279,0.27512 0.52344,0.61983 0.17285,0.73848 -0.33425,1.08514 -0.9984,0.67308 -0.47121,-0.29229 -0.21986,-1.14725 0.38285,-1.28806 0.0311,-0.007 0.0608,-0.008 0.0921,-0.005 z m -97.97213,2.27592 c 0.38248,0.013 0.64837,0.24809 0.75126,0.68761 0.19381,0.82827 -0.37721,2.20536 -0.96937,2.34371 -0.15777,0.0367 -0.60436,-0.14111 -0.99354,-0.38256 -0.98116,-0.60871 -1.11416,-1.48391 -0.29568,-2.03864 0.61242,-0.41513 1.12494,-0.62284 1.50733,-0.61012 z m -142.508844,0.67308 c 0.139064,-0.006 0.294405,-0.002 0.445895,0.0146 2.064511,0.23344 2.86442,1.29254 2.069556,2.72626 -0.788355,1.42183 -2.012105,1.79937 -3.281247,1.01204 -1.961255,-1.2168 -1.320448,-3.67632 0.765796,-3.75283 z m 10.342958,2.62941 c 0.561623,-0.004 1.189087,0.34575 1.899907,1.04595 1.48299,1.46092 -1.098669,4.09883 -2.912882,2.97321 -1.07923,-0.66953 -1.218249,-1.88874 -0.339294,-3.15722 0.365611,-0.52755 0.781842,-0.81444 1.240806,-0.8571 0.03668,-0.004 0.074,-0.005 0.111463,-0.005 z m 141.195356,0.14043 c 0.28795,0.0127 0.62147,0.13505 0.95484,0.38739 0.80936,0.61269 0.54041,1.2175 -0.67368,1.50113 -0.55764,0.13029 -0.96281,-0.14275 -1.10509,-0.75058 -0.15928,-0.68055 0.17992,-1.10025 0.7028,-1.1331 0.039,-0.002 0.0801,-0.006 0.12113,-0.005 z m -65.43587,2.27106 c 0.20835,0.005 0.38638,0.14379 0.46042,0.46003 0.0973,0.41581 -0.16538,0.83733 -0.5816,0.93456 -0.41632,0.0973 -0.72403,-0.0948 -0.69309,-0.43096 0.0551,-0.59657 0.4669,-0.97247 0.81427,-0.96363 z m -65.775217,1.40913 c 0.399909,-0.0396 0.80509,0.25805 1.056625,0.90551 0.585556,1.50713 0.0056,2.24398 -1.31834,1.67063 -0.87446,-0.37867 -1.02838,-0.66665 -0.765795,-1.45755 0.230858,-0.69523 0.627602,-1.07885 1.02751,-1.11859 z m 118.376937,2.94416 c 0.76869,-0.0239 1.00569,0.26924 1.24077,1.27353 0.40843,1.74513 -0.35526,2.2536 -1.91931,1.28323 -1.57314,-0.97598 -1.40646,-2.33086 0.31018,-2.52772 0.13265,-0.0153 0.25855,-0.024 0.36836,-0.029 z m -141.00155,0.35349 c 0.925033,0.0207 1.489638,0.84697 1.226271,2.1597 -0.285969,1.42551 -1.545345,2.02778 -2.714212,1.30258 -1.208528,-0.74981 -1.190921,-2.14203 0.04356,-2.97321 0.518385,-0.34908 1.023887,-0.49837 1.44429,-0.48907 z m 151.46569,2.60034 c 0.32596,0.006 0.63105,0.10183 0.83848,0.30992 0.87665,0.87953 -0.88895,2.7824 -1.96292,2.11611 -0.21632,-0.13413 -0.48352,-0.63698 -0.59619,-1.11858 -0.15575,-0.66556 0.75158,-1.25238 1.58005,-1.30261 0.0471,-0.002 0.094,-0.006 0.14058,-0.005 z m -141.99027,0.5375 c 0.304265,-0.003 0.615405,0.072 0.920862,0.2615 0.999082,0.61979 1.216597,1.97583 0.402292,2.52771 -1.194681,0.81003 -1.987161,0.80307 -2.719026,-0.029 -1.014351,-1.15289 0.07712,-2.74106 1.395872,-2.75531 l 0,-0.005 z m 75.92427,1.79653 c 0.0553,-0.005 0.10949,-0.002 0.16479,0 0.774,0.0275 1.22614,0.76958 0.65915,1.34618 -0.73567,0.74829 -1.1327,0.83659 -1.62852,0.33896 -0.54393,-0.54569 -0.19015,-1.46448 0.63007,-1.65609 0.0609,-0.0153 0.11917,-0.0246 0.17451,-0.029 z m 52.82471,5.28785 c 0.2329,0.0164 0.47184,0.26547 0.55249,0.61014 0.0922,0.39401 -0.062,0.76664 -0.32472,0.82804 -0.26286,0.0613 -0.55244,-0.20165 -0.6446,-0.5956 -0.0922,-0.39396 0.062,-0.76663 0.32471,-0.82805 0.033,-0.007 0.0586,-0.0146 0.0921,-0.0146 z m -65.498974,2.20328 c 0.0307,-0.003 0.06236,-0.006 0.09211,0 0.178309,0.0351 0.336721,0.19038 0.382895,0.38739 0.06149,0.26262 -0.234853,0.54345 -0.644611,0.63919 -0.409949,0.0957 -0.653553,-0.0625 -0.552541,-0.36318 0.100956,-0.30058 0.382712,-0.58624 0.630076,-0.64403 0.0307,-0.007 0.06117,-0.016 0.09207,-0.0194 z m 8.113468,1.84009 c 0.415966,-0.007 0.885186,0.0536 1.487946,0.18402 3.07428,0.66551 5.48615,2.662 6.02934,4.98279 0.83691,3.5757 -1.0829,8.25916 -3.59143,8.7792 -0.34369,0.0712 -1.7828,0.0125 -3.20371,-0.13558 -1.420857,-0.14777 -3.161117,-0.50055 -3.867674,-0.78447 -1.826086,-0.7338 -4.319434,-2.9566 -4.585053,-4.09178 -0.317926,-1.35818 3.550573,-7.0247 5.598033,-8.19813 0.874917,-0.50143 1.439248,-0.72381 2.132548,-0.73605 z M 239.526,153.90657 c 0.0593,-0.004 0.12834,0.004 0.20357,0.029 0.30087,0.10087 0.56915,0.2813 0.59615,0.39707 0.0271,0.11585 -0.1684,0.26304 -0.43137,0.32443 -0.26285,0.0614 -0.53103,-0.12384 -0.59614,-0.4019 -0.0489,-0.20868 0.0497,-0.33734 0.22779,-0.34866 z m -217.129359,3.2928 c 0.180376,0 0.478634,0.20356 1.012975,0.61497 0.651353,0.50179 1.215222,1.09809 1.269877,1.33166 0.168728,0.72102 -1.813343,0.92375 -2.282852,0.23243 -0.243511,-0.35852 -0.381705,-1.06268 -0.310179,-1.56409 0.05864,-0.41143 0.129849,-0.61502 0.310179,-0.61497 z m 62.372784,26.4296 c 1.154747,0.0211 2.027102,1.07277 2.021096,3.08944 -0.0087,2.99307 -2.692673,5.40595 -4.662581,4.1838 -1.131921,-0.70229 -1.541688,-3.45672 -0.707612,-4.79878 0.971478,-1.56298 2.129382,-2.36794 3.116458,-2.46477 0.07934,-0.008 0.155659,-0.0111 0.232639,-0.01 z m -24.514845,4.94405 c 0.359652,-0.0117 0.613389,0.24211 0.630079,0.6731 0.0476,1.2524 -1.036222,1.68677 -1.30862,0.52298 -0.137277,-0.58659 0.0801,-1.0634 0.523475,-1.167 0.05566,-0.0128 0.103668,-0.029 0.155066,-0.029 z m -50.2559177,4.78426 c 0.3950937,-0.0111 0.8564417,0.0906 1.3668037,0.31961 0.946309,0.42452 1.01293,0.57323 0.4895,1.1331 -0.881246,0.9424 -2.2350288,1.15324 -2.7287017,0.42613 -0.6775787,-0.99786 -0.2355334,-1.76281 0.7076108,-1.86914 0.053608,-0.006 0.1083915,-0.008 0.1647872,-0.01 z m 170.1935177,3.99496 c 0.99967,0.0115 1.94256,0.84461 1.98231,1.85463 0.0432,1.0908 -1.07139,1.67081 -2.05503,1.06048 -1.16148,-0.72055 -1.39991,-2.62231 -0.35383,-2.86669 0.14283,-0.0334 0.28373,-0.0485 0.42655,-0.0485 z m -30.43272,3.63177 c 1.3701,-0.0566 1.83814,1.76171 0.76575,2.95869 -0.974,1.08723 -1.72646,1.40533 -2.36034,1.01204 -1.34131,-0.8321 -0.10816,-3.90045 1.59459,-3.97073 z M 7.1972884,203.50688 c 0.038518,0 0.081475,0.006 0.1211369,0.01 0.5287017,0.0515 1.1292519,0.40954 1.2407605,0.88613 0.2230624,0.9532 -1.1596966,1.26592 -1.7496562,0.39708 -0.2503434,-0.36885 -0.3639608,-0.81915 -0.2471797,-1.00721 0.1212283,-0.1951 0.3638702,-0.28731 0.6349385,-0.28572 z"
     id="path3086" />
</svg>
