<?xml version="1.0" encoding="utf-8"?>
<!DOCTYPE svg PUBLIC "-//W3C//DTD SVG 1.1//EN" "http://www.w3.org/Graphics/SVG/1.1/DTD/svg11.dtd">
<svg version="1.1" id="twitter-bird" xmlns="http://www.w3.org/2000/svg" xmlns:xlink="http://www.w3.org/1999/xlink" x="0px" y="0px"
   width="400"
   height="400" viewBox="50 50 350 350" enable-background="new 0 0 400 400" xml:space="preserve">
<path
     id="rect3073"
     style="fill:#000000;fill-opacity:1;fill-rule:evenodd;stroke:none"
     d="m -17.534246,-20.821918 436.602756,0 0,443.616428 -436.602756,0 z M 145.44046,315.04746 c -1.52957,0.93064 -1.65544,3.89092 -0.15134,4.76698 0.58263,0.33936 1.26363,0.63306 1.51333,0.64317 0.91363,0.037 2.87532,-2.44264 2.87532,-3.63199 0,-0.75945 -0.50161,-1.39271 -1.21066,-1.77816 -1.64695,-1.1166 -2.36091,-0.60049 -3.02665,0 z m 234.59424,0.75053 c 0.31972,2.10694 0.82625,2.11398 0.96014,2.35076 0.87095,1.54018 1.22605,1.96116 2.8513,3.91677 5.16765,6.21812 5.40454,7.40892 1.94841,9.5907 -1.87949,1.18645 -2.48525,1.99094 -2.79966,3.78332 -0.60436,3.44567 -1.80597,5.01289 -3.8779,5.01289 -1.81036,0 -8.33243,-2.15204 -9.34479,-3.0834 -0.30587,-0.28141 -0.57809,-1.67695 -0.60533,-3.10232 l -0.0567,-2.59157 -2.72399,0.0378 c -1.52936,0.0279 -3.78585,0.61967 -5.14531,1.34308 -1.33172,0.70867 -3.3051,1.71452 -4.38864,2.23216 -2.33283,1.1144 -7.77087,5.61074 -16.4196,13.5821 -3.45855,3.18769 -7.36908,6.73742 -8.68271,7.8693 l -2.38349,2.04299 -4.40756,-1.38091 c -2.42132,-0.75937 -4.7776,-1.25125 -5.23989,-1.09716 -0.46229,0.15409 -1.78409,-0.63193 -2.95099,-1.75924 -4.02254,-3.88614 -6.28239,-4.70418 -13.03352,-4.71023 -6.5245,-0.005 -9.56017,0.82246 -10.66896,2.89424 -0.35859,0.67008 -0.80842,4.11317 -0.98366,7.64229 -0.2951,5.94235 -0.44755,6.54902 -2.02407,8.36113 -1.48585,1.70782 -1.61615,2.18364 -1.07825,3.72657 1.03397,2.966 2.56058,3.96119 4.86156,3.15907 3.16836,-1.10449 5.61366,0.0249 6.50731,3.00774 1.28917,4.30275 5.95379,4.67769 7.49096,0.60533 0.47803,-1.26654 1.3274,-1.94072 3.12124,-2.51591 3.00795,-0.96453 4.57781,-1.1557 4.57781,-0.52966 0,0.80248 -9.4276,14.74721 -10.78245,15.94668 -1.96406,1.73881 -3.14015,0.87654 -3.14015,-2.28891 0,-3.13434 -1.13209,-4.59673 -3.55632,-4.59673 -1.99475,0 -3.49209,1.00073 -4.50215,3.02665 -0.88039,1.76593 -3.27384,2.04923 -4.25623,0.49183 -0.48396,-0.76731 -0.37672,-1.59274 0.39725,-3.21582 1.34868,-2.82816 1.29683,-4.02187 -0.20808,-5.63714 -1.4916,-1.6011 -4.26701,-1.73239 -5.58039,-0.26483 -0.52137,0.58263 -1.14417,2.37211 -1.38091,3.97248 -0.54407,3.67896 -2.08149,4.8566 -5.59931,4.29407 -1.87513,-0.29982 -2.9065,-0.94568 -4.35081,-2.74291 -2.05383,-2.55576 -3.71395,-2.95126 -5.90198,-1.41874 -0.72664,0.50902 -1.46272,1.80292 -1.62682,2.87532 -1.01442,6.62789 -0.8718,6.30682 -3.85899,8.0963 -3.81697,2.28645 -4.7832,2.65707 -5.9398,2.21324 -0.77773,-0.29843 -0.91548,-0.92074 -0.62425,-3.04557 0.27536,-2.00903 0.0739,-3.25541 -0.83233,-5.03181 -2.22598,-4.36329 -1.49247,-5.59247 2.9699,-4.99398 1.90116,0.25502 2.80075,0.0641 3.70765,-0.75666 1.51672,-1.37235 1.50755,-2.38927 -0.0189,-3.91574 -1.76448,-1.76447 -3.68093,-1.51886 -5.50473,0.69992 -1.04643,1.27313 -1.90519,1.78109 -2.55374,1.53224 -0.84661,-0.32488 -4.21827,-5.06141 -4.82373,-6.77214 -0.12136,-0.34304 -1.21837,-0.14113 -2.59157,0.47292 -1.30618,0.58408 -3.97517,1.31435 -5.92089,1.62682 -6.64816,1.06769 -9.4772,4.1306 -9.4772,10.25279 0,5.55214 2.26127,9.01866 8.51246,12.95786 l 163.34468,0 0,-84.91654 -6.89588,-0.18762 c 1.23667,2.70829 -2.14998,4.42133 -2.78941,5.82477 -1.55388,3.41036 -4.8727,2.35007 -7.69905,-2.45916 -0.47194,-0.80305 -1.21386,-1.96389 -2.02407,-3.17799 z m -147.86171,2.29504 c -0.93426,0.0752 -1.83054,0.51005 -2.55374,1.28633 -1.64989,1.77091 -1.56294,3.84722 0.24591,5.65606 1.84566,1.84571 3.5299,1.88671 5.16423,0.13242 1.987,-2.13276 2.18364,-3.937 0.58641,-5.63715 -0.98411,-1.04753 -2.24162,-1.53438 -3.44281,-1.43766 z m -74.607,2.02408 c -0.50082,0.006 -0.93606,0.21534 -1.589,0.64316 -1.83457,1.20208 -2.09447,5.32959 -0.39724,6.31814 2.68409,1.56334 6.20464,-0.53511 6.20464,-3.70765 0,-1.4267 -0.39265,-1.92235 -2.17541,-2.66724 -0.97579,-0.40771 -1.54218,-0.5926 -2.04299,-0.58641 z m 107.3288,45.94138 c -0.53306,-0.0398 -0.94193,0.20712 -1.57008,0.77558 -1.38693,1.25516 -1.67885,5.0555 -0.47291,6.26139 1.17089,1.17088 3.55077,0.56586 4.89939,-1.24849 1.02967,-1.38526 1.10076,-1.90199 0.51075,-3.1969 -0.38584,-0.84686 -1.37734,-1.85131 -2.21324,-2.23216 -0.47216,-0.21514 -0.83408,-0.33557 -1.15391,-0.35942 z M 129.07761,321.68718 c -0.3526,0 -0.4895,0.2724 -0.28375,0.60534 0.20576,0.33293 0.49638,0.60533 0.64317,0.60533 0.14685,0 0.26483,-0.2724 0.26483,-0.60533 0,-0.33294 -0.2717,-0.60534 -0.62425,-0.60534 z m 246.99381,0.3405 0,2.26999 c 0,1.25578 -0.42234,3.11151 -0.94583,4.12382 -0.52343,1.01231 -0.79486,2.24895 -0.60533,2.7429 0.63609,1.65762 2.45916,0.63243 2.45916,-1.38091 0,-1.0218 0.39159,-2.58418 0.87016,-3.48065 0.7988,-1.49612 0.76151,-1.73552 -0.454,-2.95099 z m -109.8675,4.19948 c -0.33294,0 -0.68814,0.6129 -0.7945,1.362 -0.13311,0.93715 0.1118,1.36199 0.7945,1.36199 0.68269,0 0.94646,-0.42484 0.81341,-1.36199 -0.10642,-0.7491 -0.48048,-1.362 -0.81341,-1.362 z m -51.15044,0.30267 c -0.33293,0 -0.60533,0.2724 -0.60533,0.60533 0,0.33293 0.2724,0.60533 0.60533,0.60533 0.33293,0 0.60533,-0.2724 0.60533,-0.60533 0,-0.33293 -0.2724,-0.60533 -0.60533,-0.60533 z m 28.8667,1.21066 c -1.25321,0 -1.68167,0.70239 -0.94583,1.58899 0.36774,0.44316 0.91545,0.67429 1.21067,0.49183 0.83463,-0.5158 0.63692,-2.08082 -0.26484,-2.08082 z m -46.11862,2.11866 c -0.91405,0 -1.25558,0.47174 -1.39983,1.96732 -0.20678,2.14462 0.95482,2.68572 2.28891,1.07825 1.04831,-1.26313 0.528,-3.04557 -0.88908,-3.04557 z m 28.0722,0.28375 c -0.50384,0.0194 -1.01509,0.15714 -1.49441,0.47291 -1.1069,0.72922 -1.55803,3.04915 -0.85124,4.36973 1.00793,1.88339 4.66353,1.70599 5.56147,-0.26483 1.03644,-2.27477 -1.03249,-4.66197 -3.21582,-4.57781 z m -131.526988,0.62424 c -0.527122,0 -0.964746,0.41869 -0.964746,0.94583 0,1.06897 1.309482,0.89542 1.683576,-0.227 0.13178,-0.39536 -0.191648,-0.71883 -0.71883,-0.71883 z M 276.7972,333.7938 c -0.33293,0 -0.60533,0.2724 -0.60533,0.60533 0,0.33293 0.2724,0.60533 0.60533,0.60533 0.33293,0 0.60533,-0.2724 0.60533,-0.60533 0,-0.33293 -0.2724,-0.60533 -0.60533,-0.60533 z m -21.7919,0.60533 c -0.33293,0 -0.60533,0.2724 -0.60533,0.60533 0,0.33293 0.2724,0.60533 0.60533,0.60533 0.33293,0 0.60533,-0.2724 0.60533,-0.60533 0,-0.33293 -0.2724,-0.60533 -0.60533,-0.60533 z m -17.81942,1.21066 c -3.46213,0 -5.27279,4.75299 -2.76182,7.26397 0.66586,0.66586 1.75513,1.21066 2.40241,1.21066 1.48118,0 4.04612,-2.30462 4.55889,-4.08598 0.50212,-1.74436 -2.0324,-4.38865 -4.19948,-4.38865 z m 28.12896,1.87274 c -0.7812,0.0763 -1.50907,0.46141 -2.11866,1.135 -1.15158,1.27243 -0.95261,4.26049 0.37833,5.86414 1.15086,1.38673 3.93268,0.96357 5.31556,-0.7945 1.67453,-2.12883 1.58088,-3.50155 -0.3405,-5.01289 -1.12841,-0.88761 -2.23034,-1.28978 -3.23473,-1.19175 z m -102.39546,1.94841 c -0.2063,-0.003 -0.43615,0.0384 -0.681,0.13241 -1.18832,0.45601 -1.72731,1.77899 -1.24849,3.02666 0.56175,1.46389 2.8831,0.8318 3.12123,-0.85125 0.19924,-1.40834 -0.29779,-2.29415 -1.19174,-2.30782 z m 141.1177,3.44282 c -0.33293,0 -0.60533,0.2724 -0.60533,0.60533 0,0.33293 0.2724,0.60533 0.60533,0.60533 0.33293,0 0.60533,-0.2724 0.60533,-0.60533 0,-0.33293 -0.2724,-0.60533 -0.60533,-0.60533 z m -55.46342,2.0619 c -0.15365,-0.01 -0.29576,0.0309 -0.41616,0.15134 -0.21907,0.21907 -0.41617,0.90294 -0.41617,1.51332 0,1.30805 1.54453,1.4955 2.02408,0.24592 0.29461,-0.76772 -0.52593,-1.86871 -1.19175,-1.91058 z m 28.43162,1.09717 c -0.96363,0.0654 -2.02407,0.79887 -2.02407,1.7214 0,0.84818 0.42128,1.17283 1.53224,1.17283 1.66109,0 2.65344,-1.52711 1.64575,-2.53482 -0.29389,-0.29388 -0.7159,-0.38914 -1.15392,-0.35941 z m -149.81933,2.59157 c -0.82737,0.0599 -1.58993,0.60744 -1.9484,1.62682 -0.40957,1.16445 -0.35221,1.89755 0.20808,2.57266 1.06417,1.28225 2.21055,1.1755 3.70765,-0.32158 1.12991,-1.12988 1.16599,-1.38643 0.37833,-2.57266 -0.62939,-0.94792 -1.51828,-1.36509 -2.34566,-1.30524 z m 115.61816,4.84264 c -0.40349,-0.0383 -0.87858,0.16948 -1.72141,0.60533 -1.46975,0.76002 -1.816,1.32393 -1.816,3.00774 0,1.45161 0.41799,2.34653 1.362,3.00774 1.82144,1.27573 2.65077,1.19265 3.7644,-0.39725 1.28808,-1.83902 1.17703,-3.87371 -0.28375,-5.33448 -0.56986,-0.56986 -0.90176,-0.8508 -1.30524,-0.88908 z m -104.34387,2.19433 c -0.35622,-0.0122 -0.72335,0.11802 -1.0215,0.41616 -0.47651,0.47652 -0.44588,0.91496 0.1135,1.58899 1.0965,1.32113 2.44024,1.17025 2.44024,-0.28375 0,-0.98874 -0.74858,-1.69453 -1.53224,-1.7214 z m -17.11951,4.16164 c -0.74025,0.0258 -1.49599,0.40315 -1.94841,1.2485 -0.37052,0.69189 -0.51135,1.66187 -0.32158,2.15649 0.23093,0.60182 0.98857,0.84595 2.30782,0.71883 1.54965,-0.14934 2.01482,-0.51008 2.17541,-1.64574 0.22148,-1.56648 -0.97948,-2.52112 -2.21324,-2.47808 z m 132.26474,0.60533 c -3.50656,0 -4.77209,3.54213 -2.13757,5.99656 1.50782,1.40473 2.93455,0.94577 4.52106,-1.47549 0.90092,-1.37495 0.89483,-1.61318 -0.0189,-3.00774 -0.579,-0.88366 -1.55664,-1.51333 -2.36458,-1.51333 z m 68.17536,1.38091 c 0.13447,-0.0265 0.3487,0.12788 0.71883,0.43509 0.4994,0.41447 0.908,1.11217 0.908,1.55116 0,0.43898 -0.2316,0.95079 -0.52966,1.13499 -0.58451,0.36126 -1.28633,-1.00524 -1.28633,-2.5159 0,-0.38018 0.0547,-0.57882 0.18916,-0.60534 z m -247.277552,2.25108 c -0.682995,-0.0151 -1.197889,1.16332 -0.794497,1.81599 0.465984,0.75412 0.959268,0.74217 2.118657,-0.0189 0.807088,-0.52984 0.807088,-0.6619 0,-1.19174 -0.499397,-0.32785 -1.094074,-0.59928 -1.32416,-0.60533 z m 57.582072,1.24849 c -0.59974,0.0243 -1.19952,0.18042 -1.72141,0.51075 -1.07131,0.67815 -1.11805,3.90823 -0.0757,5.16423 1.1037,1.32985 2.27596,1.16686 3.9914,-0.54858 1.74699,-1.74699 1.83303,-2.56415 0.47292,-4.06707 -0.67139,-0.74187 -1.66768,-1.09988 -2.66724,-1.05933 z m 11.70936,5.44798 c -1.00163,-0.005 -2.0758,0.40969 -2.98882,1.26741 -1.64226,1.5428 -1.83076,3.88489 -0.41616,5.44797 1.39232,1.53851 3.63074,1.38216 5.39122,-0.37833 1.71781,-1.7178 1.87656,-3.13585 0.54859,-5.03181 -0.60639,-0.86568 -1.53319,-1.29997 -2.53483,-1.30524 z m 74.81509,0.13241 c -0.27795,0.01 -0.59921,0.15231 -1.0215,0.37834 -1.26889,0.67906 -1.75177,2.42885 -0.90799,3.27256 0.7023,0.70231 3.04847,0.4465 3.7644,-0.41616 0.52742,-0.63548 0.43323,-1.14535 -0.41617,-2.19432 -0.59069,-0.72946 -0.9555,-1.05629 -1.41874,-1.04042 z m -150.254411,3.25366 c -1.829709,0.17594 -2.989395,2.36395 -1.248495,4.10489 1.212054,1.21176 2.003977,1.19399 3.386068,-0.0567 1.45122,-1.31332 1.401916,-2.36051 -0.170249,-3.46173 -0.677353,-0.47443 -1.357424,-0.64506 -1.967324,-0.58641 z m 206.871741,1.04041 c -0.56499,0.0759 -0.9444,1.027 -0.60533,1.91057 0.18553,0.48342 0.60242,0.88908 0.94582,0.88908 0.77773,0 0.84275,-2.23103 0.0757,-2.70507 -0.14314,-0.0885 -0.28578,-0.11211 -0.41616,-0.0946 z m -83.3843,3.40498 c -4.98786,0 -6.12803,9.77615 -1.38091,11.84178 4.96523,2.16049 9.46616,-0.11731 9.45829,-4.76698 -0.005,-3.32368 -4.28916,-7.0748 -8.07738,-7.0748 z m -68.83744,1.22958 c -4.16711,-0.0164 -7.94966,1.87392 -11.31212,5.69389 -2.78948,3.16897 -3.3146,3.26055 -9.83662,1.55116 -6.737325,-1.76581 -8.428649,-1.63702 -10.87703,0.88908 -1.754248,1.80994 -2.086272,2.6305 -2.307823,5.69389 -0.196272,2.71346 -0.01096,4.74914 0.680997,6.31814 l 24.288886,0 c 0.54321,-0.47886 1.03887,-0.7945 1.30525,-0.7945 0.28953,0 1.11477,0.32648 2.09974,0.7945 l 15.0576,0 c 1.66415,-1.51376 3.03635,-3.62704 3.97248,-6.28031 2.16732,-6.14295 1.08808,-8.62699 -5.14531,-11.76611 -2.76962,-1.39475 -5.42578,-2.0899 -7.92605,-2.09974 z m -60.684391,6.6208 c -0.549144,0.0399 -1.021495,0.50254 -1.021495,1.22958 0,0.66587 0.256387,1.21066 0.54858,1.21066 0.79377,0 1.933729,-1.56584 1.475494,-2.02407 -0.310783,-0.31078 -0.673091,-0.44011 -1.002579,-0.41617 z m 254.919851,6.28031 c 1.01332,0.005 2.08677,0.70381 3.14016,2.04299 1.15842,1.47265 1.17482,1.63887 0.227,2.68615 -0.99384,1.0982 -4.99283,1.57123 -5.86414,0.69992 -0.82737,-0.82731 -0.37071,-3.67103 0.75666,-4.69131 0.54207,-0.49057 1.13234,-0.74104 1.74032,-0.73775 z" /> />
</svg>
