<?xml version="1.0" encoding="UTF-8" standalone="no"?>
<!-- Created with Inkscape (http://www.inkscape.org/) -->

<svg
   xmlns:dc="http://purl.org/dc/elements/1.1/"
   xmlns:cc="http://creativecommons.org/ns#"
   xmlns:rdf="http://www.w3.org/1999/02/22-rdf-syntax-ns#"
   xmlns:svg="http://www.w3.org/2000/svg"
   xmlns="http://www.w3.org/2000/svg"
   version="1.1"
   width="328.177"
   height="76.156998"
   viewBox="0 0 328.177 76.157"
   id="Layer_1"
   xml:space="preserve"
   style="overflow:visible"><metadata
   id="metadata3984"><rdf:RDF><cc:Work
       rdf:about=""><dc:format>image/svg+xml</dc:format><dc:type
         rdf:resource="http://purl.org/dc/dcmitype/StillImage" /><dc:title></dc:title></cc:Work></rdf:RDF></metadata><defs
   id="defs3982" />
<g
   id="g3960"
   style="fill:#9e0b0f;fill-opacity:1">
	<path
   d="m 102.977,23.832 c 43.578,-0.63 85.74,1 128.744,4.402 l 3.285,-2.242 c -46.094,-3.825 -89.967,-4.096 -132.029,-2.16 l 0,0 z"
   id="path3962"
   style="fill:#9e0b0f;fill-opacity:1;fill-rule:evenodd" />
	<path
   d="m 279.232,30.528 2.809,3.24 c 35.566,5.886 41.184,10.242 9.936,13.824 52.128,-2.88 48.025,-8.424 -12.745,-17.064 l 0,0 z"
   id="path3964"
   style="fill:#9e0b0f;fill-opacity:1;fill-rule:evenodd" />
	<polygon
   points="319.246,59.904 319.164,47.376 314.926,57.528 286.197,59.04 286.197,59.04 "
   id="polygon3966"
   style="fill:#9e0b0f;fill-opacity:1;fill-rule:evenodd" />
	<path
   d="m 80.729,64.872 c 14.157,-15.983 17.09,-34.055 6.48,-54.648 -15.061,4.694 -27.706,9.347 -37.584,14.04 l -6.912,-2.16 C 83.757,4.336 123.06,-4.916 158.921,2.664 c -28.216,-0.818 -48.683,1.683 -64.8,6.048 8.694,26.37 2.682,44.19 -13.392,56.16 l 0,0 z"
   id="path3968"
   style="fill:#9e0b0f;fill-opacity:1;fill-rule:evenodd" />
	<path
   d="m 145.961,15.84 c 11.449,-7.814 27.361,-1.838 26.568,5.616 h 3.889 C 175.342,5.268 146.179,8.604 145.961,15.84 l 0,0 z"
   id="path3970"
   style="fill:#9e0b0f;fill-opacity:1;fill-rule:evenodd" />
	<polygon
   points="30.838,9.872 33.788,22.341 36.335,22.61 36.47,6.789 0,7.057 0,7.057 "
   id="polygon3972"
   style="fill:#9e0b0f;fill-opacity:1;fill-rule:evenodd" />
	<path
   d="m 101.712,23.913 c 135.36,4.661 119.03,44.323 -4.286,44.901 116.277,-5.779 117.953,-35.314 4.286,-44.901 l 0,0 z"
   id="path3974"
   style="fill:#9e0b0f;fill-opacity:1;fill-rule:evenodd" />
	<path
   d="m 36.739,24.689 c 10.236,0 19.361,3.989 25.15,10.154 -5.2,-4.925 -12.778,-8.037 -21.196,-8.037 -15.616,0 -28.352,10.71 -28.352,23.84 0,13.13 12.736,23.84 28.352,23.84 6.234,0 12.007,-1.709 16.696,-4.595 -5.549,3.9 -12.771,6.266 -20.65,6.266 -17.426,0 -31.638,-11.561 -31.638,-25.733 0,-14.174 14.212,-25.735 31.638,-25.735 l 0,0 z"
   id="path3976"
   style="fill:#9e0b0f;fill-opacity:1;fill-rule:evenodd" />
	<path
   d="m 253.277,24.689 c -10.236,0 -19.361,3.989 -25.15,10.154 5.199,-4.925 12.777,-8.037 21.195,-8.037 15.615,0 28.352,10.71 28.352,23.84 0,13.13 -12.736,23.84 -28.352,23.84 -6.234,0 -12.006,-1.709 -16.695,-4.595 5.549,3.9 12.77,6.266 20.65,6.266 17.426,0 31.639,-11.561 31.639,-25.733 0,-14.174 -14.213,-25.735 -31.639,-25.735 l 0,0 z"
   id="path3978"
   style="fill:#9e0b0f;fill-opacity:1;fill-rule:evenodd" />
</g>
</svg>